<svg viewBox="0 0 14 21" xmlns="http://www.w3.org/2000/svg"><path d="M12.6334 0.625544C12.0336 0.375613 11.3838 0.505577 10.9239 0.955452L7.015 4.84437L3.09609 0.965449C2.63622 0.505577 1.9764 0.385611 1.38657 0.625544C0.786736 0.875474 0.41684 1.42532 0.41684 2.07514V12.6122C0.41684 13.1121 0.596789 13.6019 0.9167 13.9818L6.18523 20.1401V20.1601L6.21522 20.1701C6.43516 20.39 6.72508 20.5 7.005 20.5C7.28492 20.5 7.57484 20.39 7.79478 20.1701H7.80478L13.0833 13.9818C13.4132 13.6019 13.5832 13.1121 13.5832 12.6122V2.07514C13.5832 1.42532 13.2133 0.875474 12.6134 0.625544H12.6334ZM12.5934 12.6222C12.5934 12.8821 12.5035 13.1421 12.3335 13.342L7.08498 19.4803C7.08498 19.4803 7.03499 19.5103 7.005 19.5103V6.26397L11.6237 1.67525C11.8736 1.42532 12.1636 1.5153 12.2435 1.55528C12.3235 1.58528 12.5934 1.72524 12.5934 2.08514V12.6222Z"/></svg>