<svg xmlns="http://www.w3.org/2000/svg" viewBox="0 0 16 21"><path d="M7.99983 0.510452C3.97579 0.594068 0.777462 3.92827 0.850626 7.95231C0.850626 9.20656 1.15374 10.4504 1.7495 11.5583C1.79131 11.6314 1.82267 11.7046 1.86448 11.7673L7.12186 20.014C7.52949 20.662 8.47017 20.662 8.88825 20.014L14.1352 11.7778C14.177 11.7046 14.2188 11.6314 14.2606 11.5478C14.8459 10.4399 15.1595 9.19611 15.149 7.94186C15.2326 3.90737 12.0239 0.583616 7.99983 0.5M7.99983 11.2029C6.24389 11.1611 4.85376 9.70826 4.88512 7.96276C4.85376 6.20682 6.24389 4.75399 7.99983 4.72263C9.75577 4.76444 11.1459 6.20682 11.1145 7.96276C11.1459 9.71871 9.75577 11.1715 7.99983 11.2029Z"/></svg>