<svg width="30" height="29" viewBox="0 0 30 29" fill="none" xmlns="http://www.w3.org/2000/svg">
<path d="M0.0187702 9.9046H24.575V11.8082C20.6108 10.9232 17.1903 11.8545 14.6593 15.0948C12.1283 18.3351 12.0403 21.875 13.8429 25.5424C13.7471 25.5503 13.6556 25.5643 13.5641 25.5643C10.5966 25.5643 7.62915 25.5713 4.66167 25.5643C2.37812 25.5573 0.573758 24.1298 0.105025 21.9693C0.0429445 21.6822 0.0108251 21.3894 0.00918642 21.0957C0.00279724 17.4486 0.00279724 13.8007 0.00918642 10.1518C0.00570141 10.0723 0.0135427 9.99721 0.0187702 9.9046Z" fill="white"/>
<path d="M14.7363 20.8686C14.7343 19.9124 14.9204 18.9651 15.2841 18.0811C15.6478 17.1972 16.1819 16.3939 16.8558 15.7173C17.5297 15.0406 18.3301 14.504 19.2112 14.1382C20.0923 13.7723 21.0367 13.5844 21.9904 13.5852C25.9729 13.5852 29.2218 16.8587 29.2261 20.8642C29.2261 22.7908 28.4629 24.6385 27.1043 26.0008C25.7457 27.3631 23.903 28.1284 21.9817 28.1284C20.0603 28.1284 18.2177 27.3631 16.8591 26.0008C15.5005 24.6385 14.7372 22.7908 14.7372 20.8642L14.7363 20.8686ZM23.0202 19.8202C23.0202 19.4402 23.028 19.0943 23.0202 18.7483C23.0037 18.1132 22.5462 17.6493 21.9582 17.6598C21.3701 17.6703 20.9423 18.1342 20.937 18.7518C20.9307 19.4385 20.9307 20.1251 20.937 20.8118C20.9423 21.4854 21.3657 21.9099 22.0374 21.9161C22.6764 21.9213 23.3153 21.9213 23.9542 21.9161C24.6007 21.9161 25.0546 21.4854 25.0615 20.8861C25.0694 20.2667 24.6155 19.829 23.9533 19.8202C23.6545 19.8159 23.3539 19.8194 23.0202 19.8194V19.8202Z" fill="white"/>
<path d="M16.9208 2.59678C16.8973 2.67837 16.8819 2.76206 16.8746 2.84665C16.8746 3.64339 16.8667 4.44013 16.8746 5.23775C16.8807 5.9017 17.3285 6.37346 17.9244 6.37346C18.5204 6.37346 18.9464 5.90519 18.956 5.25172C18.9673 4.48817 18.956 3.72376 18.956 2.95934V2.60989C22.773 2.0796 24.9032 5.00012 24.5416 7.76426H0.0245785C-0.120921 6.08253 0.373079 4.6629 1.67996 3.57524C2.45189 2.92184 3.43077 2.56565 4.44095 2.57058C4.83127 2.57058 5.22508 2.57844 5.61279 2.58369L5.60582 2.57408C5.61017 2.63873 5.61976 2.70425 5.61976 2.76889C5.61976 3.6067 5.61279 4.44537 5.62411 5.28317C5.63283 5.91392 6.10069 6.38132 6.68355 6.37083C7.26642 6.36035 7.70118 5.89907 7.70553 5.28317C7.71163 4.37984 7.70553 3.47652 7.70553 2.57494L7.69334 2.58717C7.81183 2.58106 7.93032 2.56796 8.04968 2.56796C10.869 2.56796 13.6887 2.56796 16.5087 2.56796C16.6481 2.56796 16.7875 2.59242 16.9269 2.60553L16.9208 2.59678Z" fill="white"/>
<path d="M5.61607 1.71438C5.61607 1.48636 5.61607 1.25748 5.62739 1.02946C5.66137 0.412686 6.11181 -0.0136441 6.70426 0.000333812C7.26883 0.0143118 7.69749 0.464233 7.70881 1.06528C7.70881 1.28194 7.69836 1.50209 7.69313 1.717L7.70533 1.70477H5.61084L5.61607 1.71438Z" fill="white"/>
<path d="M16.927 1.73536C16.927 1.40251 16.866 1.05831 16.927 0.737694C17.0141 0.272928 17.4994 -0.0249813 17.9882 0.00210097C18.2183 0.0126203 18.4377 0.103109 18.6086 0.258045C18.7794 0.412981 18.8912 0.622706 18.9248 0.851259C18.9605 1.11335 18.9309 1.38941 18.9309 1.72488H16.92L16.927 1.73536Z" fill="white"/>
</svg>
