<svg width="126" height="143" viewBox="0 0 126 143" fill="none" xmlns="http://www.w3.org/2000/svg">
<path d="M60.3227 97.4833C58.4002 97.4833 56.4961 97.299 54.6106 96.9304C48.7136 95.7878 43.5376 92.8761 39.6186 88.5455C38.0658 86.8132 38.2691 84.2332 40.0992 82.7405C41.9108 81.2662 44.6467 81.4689 46.1996 83.1828C51.431 89.0062 60.0454 90.8122 68.1237 87.8267C77.2557 84.4359 81.5259 76.0694 79.0118 66.505C77.4036 60.3868 72.32 53.1444 66.0533 48.0766C64.3156 46.676 62.2452 45.3307 60.0454 43.9301C56.8659 41.8846 53.5754 39.7837 50.821 37.1116C47.3826 33.7945 45.4047 30.2194 44.7577 26.1835C43.8888 20.7103 44.924 15.4029 47.7524 10.8695C50.5437 6.39137 54.8509 3.03738 60.1748 1.15768C63.7241 -0.0954543 67.9019 -0.335024 71.9687 0.4574C75.8138 1.21297 79.0118 2.77939 80.7495 4.76966C82.2838 6.52036 82.025 9.10035 80.1949 10.5562C78.3648 12.012 75.6474 11.7725 74.1131 10.0402C73.8173 9.72692 72.3754 8.91607 70.0832 8.49221C67.6431 8.0315 65.1845 8.1605 63.188 8.87921C56.034 11.4039 52.152 17.7249 53.3166 24.9673C54.1669 30.2378 59.3799 33.5918 64.9072 37.13C67.1994 38.6043 69.5841 40.1339 71.6914 41.8293C75.2407 44.7041 78.5312 48.2056 81.2301 51.965C84.2063 56.1114 86.3507 60.4605 87.4229 64.5332C89.0866 70.891 88.5135 77.3962 85.8146 82.8695C82.9308 88.6929 77.9212 93.0604 71.2848 95.5114C67.7355 96.8383 64.0383 97.5017 60.3597 97.5017L60.3227 97.4833Z" fill="white" fill-opacity="0.44"/>
<path d="M124.487 135.833L105.373 118.049C108.774 115.746 113.599 112.134 118.257 107.49C119.903 105.85 119.847 103.251 118.128 101.685C116.409 100.119 113.673 100.174 112.009 101.814C107.961 105.831 103.727 109.038 100.677 111.12C100.677 108.835 100.419 106.384 99.9564 103.749C99.5497 101.519 97.3129 100.008 94.9652 100.395C92.6175 100.782 91.0277 102.901 91.4344 105.15C93.0242 113.866 91.5823 119.395 86.5172 124.26C84.2989 126.379 79.9917 127.872 74.3536 128.48C69.1221 129.051 63.9646 128.756 61.1362 128.314C55.2947 127.43 46.5694 123.283 41.2455 116.317C39.6188 114.198 38.2508 112.152 37.0492 110.365C33.6848 105.352 30.7641 101.022 25.2183 99.4736C20.9111 98.2757 16.7334 98.5706 13.1286 100.303C11.2616 101.187 9.61633 102.441 8.17444 104.025C7.39804 102.551 5.71583 101.611 3.90422 101.796C1.51955 102.017 -0.218109 104.025 0.0222058 106.292L1.51955 120.795C-0.0147659 131.76 3.22025 139.076 3.71936 140.127C3.81179 140.348 3.94119 140.551 4.07059 140.753C4.07059 140.753 4.07059 140.772 4.08908 140.79C4.14454 140.864 4.19999 140.938 4.25545 140.993C4.25545 140.993 4.29242 141.03 4.29242 141.048C4.32939 141.103 4.36637 141.14 4.42182 141.196C4.44031 141.214 4.4588 141.232 4.47728 141.269C4.53274 141.325 4.5882 141.38 4.64365 141.417C4.68062 141.435 4.69911 141.472 4.73608 141.49C4.77305 141.527 4.81003 141.564 4.847 141.583C4.88397 141.619 4.92094 141.638 4.95791 141.675C5.01337 141.712 5.05034 141.748 5.1058 141.785C5.12428 141.804 5.16125 141.822 5.17974 141.841C5.2352 141.877 5.30914 141.914 5.3646 141.97C5.3646 141.97 5.38308 141.97 5.40157 141.988C5.47551 142.025 5.54946 142.062 5.6234 142.117C5.6234 142.117 5.66037 142.117 5.66037 142.135C5.82674 142.228 6.0116 142.301 6.17797 142.357C6.36283 142.412 6.54769 142.467 6.75103 142.504C6.93589 142.541 7.12075 142.559 7.30561 142.578C7.32409 142.578 7.36106 142.578 7.37955 142.578C7.45349 142.578 7.52744 142.578 7.60138 142.578C7.60138 142.578 7.61987 142.578 7.63835 142.578C7.84169 142.578 8.04504 142.578 8.24838 142.541C8.24838 142.541 8.26687 142.541 8.28535 142.541C8.34081 142.541 8.39627 142.541 8.45173 142.504C8.47021 142.504 8.4887 142.504 8.52567 142.504C8.56264 142.504 8.6181 142.504 8.65507 142.467C8.69204 142.467 8.72901 142.467 8.76598 142.449C8.80296 142.449 8.82144 142.449 8.85841 142.43C8.91387 142.43 8.96933 142.393 9.02479 142.375C9.02479 142.375 9.06176 142.375 9.08024 142.375C9.44996 142.246 9.7827 142.099 10.0785 141.896C10.097 141.896 10.1154 141.859 10.1524 141.841C10.1894 141.822 10.2079 141.804 10.2448 141.767C10.2818 141.73 10.3373 141.693 10.3742 141.675C10.3742 141.675 10.3742 141.675 10.3927 141.656C10.6515 141.454 10.8918 141.214 11.0952 140.956C11.1322 140.919 11.1691 140.864 11.2061 140.827C11.2061 140.827 11.2061 140.809 11.2246 140.79C11.2431 140.753 11.2801 140.716 11.2985 140.68C11.2985 140.661 11.317 140.643 11.3355 140.624C11.354 140.587 11.3725 140.569 11.391 140.532C11.391 140.495 11.4279 140.477 11.4464 140.44C11.4464 140.422 11.4649 140.403 11.4834 140.366C11.5019 140.329 11.5204 140.293 11.5389 140.256C11.5389 140.256 11.5389 140.237 11.5573 140.219C11.5758 140.164 11.5943 140.127 11.6313 140.071C11.7237 139.832 11.8161 139.592 11.8716 139.334C11.8716 139.334 11.8901 139.205 11.9086 139.15C11.9086 139.15 11.9086 139.132 11.9086 139.113C11.9086 139.058 11.9086 139.021 11.9271 138.966C11.9271 138.929 11.9271 138.892 11.9271 138.837C11.9271 138.818 11.9271 138.8 11.9271 138.763C11.9271 138.542 11.9271 138.321 11.9086 138.1L10.1524 121.09C10.4667 119.174 10.9658 117.091 11.7237 114.898C12.9807 111.231 14.7369 108.835 16.9737 107.766C19.0256 106.79 21.2439 107.085 22.7597 107.49C25.0889 108.135 26.7527 110.475 29.7289 114.898C31.0044 116.796 32.4463 118.934 34.2209 121.256C41.0237 130.157 51.9303 135.354 59.7313 136.533C63.2621 137.068 69.196 137.418 75.2963 136.736C83.0973 135.888 88.9204 133.658 92.6175 130.139C94.9652 127.89 96.7768 125.495 98.0893 122.859L118.424 141.767C119.274 142.541 120.365 142.946 121.455 142.946C122.546 142.946 123.692 142.541 124.542 141.712C126.206 140.09 126.188 137.491 124.469 135.907L124.487 135.833Z" fill="white" fill-opacity="0.44"/>
<path d="M27.9541 52.7395L29.8212 50.7123C30.2279 50.27 30.1909 49.5882 29.7103 49.2012C29.2296 48.8142 28.5457 48.8511 28.1205 49.2933L25.6804 51.9286C25.4216 51.8733 25.1813 51.8365 24.9225 51.7996V49.2749C24.9225 48.6852 24.4233 48.2061 23.7948 48.2061C23.1663 48.2061 22.6672 48.6852 22.6672 49.2749V51.7996C22.4084 51.8365 22.1496 51.8733 21.9093 51.9286L19.4692 49.2933C19.0625 48.8511 18.36 48.8142 17.8794 49.2012C17.4172 49.5882 17.3618 50.27 17.7685 50.7123L19.6355 52.7395C16.9366 54.14 15.1065 56.849 15.1065 59.9634C15.1065 64.5152 18.9885 68.1825 23.7579 68.1825C28.5272 68.1825 32.4092 64.4968 32.4092 59.9634C32.4092 56.849 30.5791 54.1216 27.8802 52.7395H27.9541Z" fill="white" fill-opacity="0.44"/>
<path d="M112.231 52.7395L114.098 50.7123C114.505 50.27 114.468 49.5882 113.987 49.2012C113.525 48.8142 112.822 48.8511 112.397 49.2933L109.957 51.9286C109.698 51.8733 109.458 51.8365 109.199 51.7996V49.2749C109.199 48.6852 108.7 48.2061 108.072 48.2061C107.443 48.2061 106.944 48.6852 106.944 49.2749V51.7996C106.685 51.8365 106.426 51.8733 106.186 51.9286L103.746 49.2933C103.339 48.8511 102.637 48.8142 102.156 49.2012C101.694 49.5882 101.638 50.27 102.045 50.7123L103.912 52.7395C101.213 54.14 99.3832 56.849 99.3832 59.9634C99.3832 64.5152 103.265 68.1825 108.035 68.1825C112.804 68.1825 116.686 64.4968 116.686 59.9634C116.686 56.849 114.856 54.1216 112.157 52.7395H112.231Z" fill="white" fill-opacity="0.44"/>
</svg>
