<svg width="357" height="54" viewBox="0 0 357 54" fill="none" xmlns="http://www.w3.org/2000/svg">
<g clip-path="url(#clip0_1_324)">
<path d="M22.8116 36.8451C22.085 36.8451 21.3654 36.7754 20.6527 36.6361C18.4239 36.2043 16.4677 35.1038 14.9865 33.467C14.3996 32.8123 14.4765 31.8372 15.1681 31.2731C15.8528 30.7159 16.8869 30.7925 17.4738 31.4402C19.451 33.6412 22.7068 34.3237 25.76 33.1954C29.2114 31.9138 30.8254 28.7517 29.8752 25.1369C29.2673 22.8245 27.346 20.0872 24.9775 18.1718C24.3207 17.6425 23.5382 17.134 22.7068 16.6047C21.5051 15.8316 20.2615 15.0375 19.2204 14.0276C17.9209 12.7739 17.1733 11.4227 16.9288 9.89733C16.6004 7.82871 16.9917 5.82278 18.0606 4.10938C19.1156 2.41687 20.7435 1.14924 22.7557 0.438801C24.0972 -0.034822 25.6762 -0.125368 27.2132 0.174129C28.6665 0.459696 29.8752 1.05173 30.5319 1.80395C31.1118 2.46563 31.014 3.44074 30.3223 3.99097C29.6306 4.54121 28.6036 4.45067 28.0237 3.79595C27.9119 3.67755 27.3669 3.37109 26.5006 3.21089C25.5783 3.03676 24.6491 3.08552 23.8945 3.35716C21.1907 4.31137 19.7235 6.70038 20.1636 9.43764C20.485 11.4296 22.4553 12.6973 24.5443 14.0346C25.4107 14.5918 26.3119 15.1699 27.1084 15.8107C28.4499 16.8972 29.6935 18.2206 30.7136 19.6414C31.8384 21.2086 32.6489 22.8523 33.0541 24.3916C33.6829 26.7945 33.4663 29.2532 32.4463 31.3218C31.3563 33.5228 29.463 35.1735 26.9547 36.0998C25.6133 36.6013 24.2159 36.8521 22.8256 36.8521L22.8116 36.8451Z" fill="#0764AB"/>
<path d="M47.0625 51.3394L39.8382 44.6181C41.1238 43.7475 42.9473 42.3823 44.708 40.6271C45.3298 40.0072 45.3088 39.0252 44.6591 38.4331C44.0093 37.8411 42.9753 37.862 42.3465 38.4819C40.8164 40.0003 39.2164 41.2122 38.0636 41.9992C38.0636 41.1356 37.9658 40.2092 37.7911 39.2132C37.6374 38.3704 36.792 37.7993 35.9047 37.9456C35.0174 38.0918 34.4165 38.8928 34.5703 39.7426C35.1711 43.037 34.6262 45.1265 32.7118 46.9653C31.8734 47.7663 30.2455 48.3305 28.1145 48.5603C26.1373 48.7762 24.188 48.6648 23.119 48.4976C20.9112 48.1633 17.6135 46.5962 15.6013 43.9634C14.9865 43.1624 14.4695 42.3893 14.0153 41.7137C12.7438 39.8192 11.6399 38.1824 9.54385 37.5973C7.91595 37.1446 6.33695 37.256 4.97454 37.9108C4.26889 38.2451 3.64707 38.7187 3.10211 39.3177C2.80866 38.7605 2.17287 38.4053 1.48818 38.4749C0.58689 38.5585 -0.0698613 39.3177 0.0209659 40.1744L0.58689 45.6559C0.00699248 49.8001 1.22967 52.5652 1.41831 52.9622C1.45324 53.0458 1.50215 53.1224 1.55106 53.199C1.55106 53.199 1.55106 53.206 1.55804 53.213C1.579 53.2408 1.59996 53.2687 1.62092 53.2896C1.62092 53.2896 1.6349 53.3035 1.6349 53.3105C1.64887 53.3314 1.66284 53.3453 1.6838 53.3662C1.69079 53.3732 1.69778 53.3801 1.70476 53.3941C1.72572 53.4149 1.74668 53.4358 1.76764 53.4498C1.78162 53.4567 1.7886 53.4707 1.80258 53.4776C1.81655 53.4916 1.83052 53.5055 1.8445 53.5125C1.85847 53.5264 1.87244 53.5333 1.88642 53.5473C1.90738 53.5612 1.92135 53.5751 1.94231 53.5891C1.9493 53.596 1.96327 53.603 1.97026 53.61C1.99122 53.6239 2.01917 53.6378 2.04013 53.6587C2.04013 53.6587 2.04711 53.6587 2.0541 53.6657C2.08205 53.6796 2.10999 53.6936 2.13794 53.7144C2.13794 53.7144 2.15191 53.7144 2.15191 53.7214C2.21479 53.7562 2.28466 53.7841 2.34754 53.805C2.41741 53.8259 2.48728 53.8468 2.56413 53.8607C2.634 53.8746 2.70386 53.8816 2.77373 53.8886C2.78072 53.8886 2.79469 53.8886 2.80168 53.8886C2.82962 53.8886 2.85757 53.8886 2.88552 53.8886C2.88552 53.8886 2.8925 53.8886 2.89949 53.8886C2.97635 53.8886 3.0532 53.8886 3.13005 53.8746C3.13005 53.8746 3.13704 53.8746 3.14403 53.8746C3.16499 53.8746 3.18595 53.8746 3.20691 53.8607C3.21389 53.8607 3.22088 53.8607 3.23485 53.8607C3.24883 53.8607 3.26979 53.8607 3.28376 53.8468C3.29773 53.8468 3.31171 53.8468 3.32568 53.8398C3.33965 53.8398 3.34664 53.8398 3.36061 53.8328C3.38157 53.8328 3.40253 53.8189 3.42349 53.812C3.42349 53.812 3.43747 53.812 3.44445 53.812C3.58419 53.7632 3.70995 53.7075 3.82174 53.6309C3.82872 53.6309 3.83571 53.6169 3.84968 53.61C3.86366 53.603 3.87064 53.596 3.88462 53.5821C3.89859 53.5682 3.91955 53.5542 3.93352 53.5473C3.93352 53.5473 3.93352 53.5473 3.94051 53.5403C4.03833 53.4637 4.12915 53.3732 4.20601 53.2756C4.21998 53.2617 4.23395 53.2408 4.24793 53.2269C4.24793 53.2269 4.24793 53.2199 4.25491 53.213C4.2619 53.199 4.27587 53.1851 4.28286 53.1712C4.28286 53.1642 4.28985 53.1572 4.29683 53.1503C4.30382 53.1363 4.31081 53.1294 4.31779 53.1155C4.31779 53.1015 4.33177 53.0946 4.33875 53.0806C4.33875 53.0737 4.34574 53.0667 4.35273 53.0528C4.35971 53.0388 4.3667 53.0249 4.37369 53.011C4.37369 53.011 4.37369 53.004 4.38067 52.997C4.38766 52.9761 4.39465 52.9622 4.40862 52.9413C4.44355 52.8508 4.47849 52.7602 4.49945 52.6627C4.49945 52.6627 4.50643 52.614 4.51342 52.5931C4.51342 52.5931 4.51342 52.5861 4.51342 52.5791C4.51342 52.5582 4.51342 52.5443 4.52041 52.5234C4.52041 52.5095 4.52041 52.4956 4.52041 52.4747C4.52041 52.4677 4.52041 52.4607 4.52041 52.4468C4.52041 52.3632 4.52041 52.2796 4.51342 52.1961L3.84968 45.7673C3.96846 45.043 4.1571 44.2559 4.44355 43.4271C4.91865 42.041 5.58239 41.1356 6.42778 40.7316C7.20331 40.3624 8.04171 40.4739 8.61462 40.6271C9.49495 40.8709 10.1238 41.7555 11.2486 43.4271C11.7307 44.1445 12.2757 44.9524 12.9464 45.83C15.5175 49.1941 19.6397 51.1583 22.588 51.604C23.9225 51.806 26.1652 51.9384 28.4709 51.6806C31.4193 51.3603 33.6201 50.5175 35.0174 49.1872C35.9047 48.3374 36.5894 47.432 37.0855 46.436L44.7709 53.5821C45.0922 53.8746 45.5045 54.0279 45.9167 54.0279C46.3289 54.0279 46.7621 53.8746 47.0835 53.5612C47.7123 52.9483 47.7053 51.9662 47.0555 51.3672L47.0625 51.3394Z" fill="#0764AB"/>
<path d="M10.5779 19.934L11.2835 19.1678C11.4372 19.0007 11.4233 18.7429 11.2416 18.5967C11.06 18.4504 10.8014 18.4643 10.6408 18.6315L9.71851 19.6275C9.62069 19.6066 9.52987 19.5927 9.43205 19.5788V18.6245C9.43205 18.4017 9.24341 18.2206 9.00586 18.2206C8.76831 18.2206 8.57967 18.4017 8.57967 18.6245V19.5788C8.48186 19.5927 8.38404 19.6066 8.29322 19.6275L7.37097 18.6315C7.21726 18.4643 6.95177 18.4504 6.77011 18.5967C6.59545 18.7429 6.57449 19.0007 6.72819 19.1678L7.43385 19.934C6.41379 20.4633 5.72211 21.4872 5.72211 22.6643C5.72211 24.3846 7.18932 25.7707 8.99189 25.7707C10.7945 25.7707 12.2617 24.3777 12.2617 22.6643C12.2617 21.4872 11.57 20.4563 10.5499 19.934H10.5779Z" fill="#0764AB"/>
<path d="M42.4303 19.934L43.1359 19.1678C43.2897 19.0007 43.2757 18.7429 43.094 18.5967C42.9194 18.4504 42.6539 18.4643 42.4932 18.6315L41.5709 19.6275C41.4731 19.6066 41.3823 19.5927 41.2845 19.5788V18.6245C41.2845 18.4017 41.0958 18.2206 40.8583 18.2206C40.6207 18.2206 40.4321 18.4017 40.4321 18.6245V19.5788C40.3343 19.5927 40.2365 19.6066 40.1456 19.6275L39.2234 18.6315C39.0697 18.4643 38.8042 18.4504 38.6225 18.5967C38.4479 18.7429 38.4269 19.0007 38.5806 19.1678L39.2863 19.934C38.2662 20.4633 37.5745 21.4872 37.5745 22.6643C37.5745 24.3846 39.0417 25.7707 40.8443 25.7707C42.6469 25.7707 44.1141 24.3777 44.1141 22.6643C44.1141 21.4872 43.4224 20.4563 42.4023 19.934H42.4303Z" fill="#0764AB"/>
<path d="M74.2128 45.5723C74.2128 46.8957 74.2128 49.3474 71.2854 49.3474C68.358 49.3474 68.3021 46.5126 68.3021 45.5723V28.8562C66.9606 31.5447 66.5624 32.3039 64.9275 32.3039C63.09 32.3039 61.9442 30.695 61.9442 29.4691C61.9442 28.7169 63.5301 26.1189 64.131 25.0742C67.2121 19.8782 69.3431 12.1331 70.3422 8.5879C70.936 6.41481 72.2775 6.178 73.1229 6.178C74.3176 6.178 76.0992 6.79092 76.0992 8.63666C76.0992 8.92223 75.9036 11.562 74.2128 16.0057V33.0074C76.1481 30.4581 78.335 27.5746 79.2782 26.1607C81.7096 22.3857 82.8554 19.2653 83.2047 18.2275H80.6755C79.5856 18.2275 76.7001 18.2275 76.7001 15.3928C76.7001 12.558 79.5786 12.5092 80.6755 12.5092H84.651C84.9514 11.3739 85.4964 8.68542 85.8457 7.02773C85.9924 6.22675 86.74 5.56507 88.2282 5.56507C89.2203 5.56507 91.6027 5.98994 91.6027 8.5879C91.6027 9.77196 91.2534 12.0356 91.1556 12.5092H104.319C105.36 12.5092 108.294 12.558 108.294 15.3928C108.294 18.2275 105.367 18.2275 104.319 18.2275H89.863C88.6194 22.2881 87.5295 24.51 86.8308 25.9727H103.019C104.165 25.9727 106.994 25.9727 106.994 28.7099C106.994 31.4472 104.011 31.4472 103.019 31.4472H97.1083V42.5495H104.312C108.287 42.5495 108.287 45.0499 108.287 45.3355C108.287 45.7116 108.287 48.1703 104.312 48.1703H82.555C79.921 48.1703 78.5795 46.9444 78.5795 45.3842C78.5795 43.1206 80.6196 42.5495 82.555 42.5495H90.7993V31.4472H86.8238C85.3846 31.4472 84.8885 31.4472 83.9942 30.883C83.596 31.4054 79.8721 36.8312 77.783 38.252C77.3848 38.4888 76.4905 38.865 75.7429 38.865C75.1001 38.865 74.4993 38.6281 74.2058 38.4888V45.5723H74.2128Z" fill="#0764AB"/>
<path d="M154.232 16.1032V18.2275C154.232 18.7917 154.036 21.0623 150.654 21.0623H119.459C116.182 21.0623 115.882 18.938 115.882 18.2275V16.1032C114.687 16.1032 112.451 16.1032 112.451 13.8813C112.451 11.6595 114.882 11.6595 115.33 11.6595H115.875V9.58391C115.875 9.01974 116.07 6.70038 119.452 6.70038H150.647C153.924 6.70038 154.225 8.87347 154.225 9.58391V11.6595C155.915 11.6595 158.095 11.6595 158.095 13.8813C158.095 15.8664 156.16 16.1032 155.217 16.1032H154.225H154.232ZM129.45 43.6848C129.548 43.9216 129.652 44.2489 129.652 44.7226C129.652 45.6698 129.506 46.1852 125.831 47.6061C125.083 47.8917 119.522 49.8697 116.147 49.8697C113.667 49.8697 113.562 47.7942 113.562 47.3693C113.562 45.2937 115.253 45.0569 118.278 44.5833C119.172 44.444 120.863 43.9703 121.904 43.6848H120.416C117.09 43.6848 116.343 41.4629 116.343 40.0978V25.7846C116.343 24.4125 117.09 22.1976 120.416 22.1976H149.669C152.995 22.1976 153.791 24.4195 153.791 25.7846V40.0978C153.791 41.4699 152.995 43.6848 149.669 43.6848H148.726C149.718 44.0121 154.141 45.0081 155.035 45.2449C156.377 45.6211 156.824 46.6588 156.824 47.3693C156.824 48.031 156.523 50.2528 154.343 50.2528C153.701 50.2528 147.189 49.0688 142.424 46.9026C141.53 46.4778 140.44 45.9554 140.44 44.5902C140.44 44.2629 140.538 43.9286 140.587 43.6917H129.464L129.45 43.6848ZM132.23 11.6595V10.2874H122.791C121.646 10.2874 121.646 10.5242 121.646 11.6595H132.224H132.23ZM121.653 16.1032C121.653 16.7649 121.653 17.0922 121.799 17.2872C121.946 17.4753 122.246 17.5241 122.791 17.5241H132.23V16.1102H121.653V16.1032ZM147.874 28.1945C147.874 26.8224 147.825 26.6343 146.63 26.6343H123.581C122.386 26.6343 122.386 26.8712 122.386 28.1945H147.867H147.874ZM122.393 31.879V33.5785H147.874V31.879H122.393ZM122.393 37.3535V38.1058C122.393 38.858 122.54 39.0948 123.588 39.0948H146.588C147.832 39.0948 147.881 38.9555 147.881 37.3466H122.4L122.393 37.3535ZM148.621 11.6595C148.621 11.0953 148.621 10.761 148.524 10.5729C148.377 10.3361 148.125 10.2874 147.629 10.2874H137.792V11.6595H148.621ZM137.792 16.1032V17.5171H147.28C148.621 17.5171 148.621 16.9042 148.621 16.1032H137.792Z" fill="#0764AB"/>
<path d="M171.223 17.2803C169.98 17.2803 169.98 18.1788 169.98 18.6942V45.5235C169.98 47.5086 169.931 49.2986 167.101 49.2986C164.272 49.2986 164.174 47.9265 164.174 45.5235V16.0057C164.174 14.8704 165.466 11.7988 168.694 11.7988H181.857V9.765C181.857 7.59191 181.857 6.03173 184.638 6.03173C187.915 6.03173 187.915 8.34413 187.915 9.765V11.7988H201.622C203.663 11.7988 205.794 13.359 205.794 16.2355V43.7266C205.794 48.7344 201.42 48.9225 198.688 48.9225C192.728 48.9225 191.534 47.9752 191.534 46.234C191.534 44.4927 192.232 43.1136 193.867 43.1136C194.615 43.1136 197.794 43.441 198.437 43.441C199.974 43.441 199.974 43.1554 199.974 41.7415V18.4643C199.974 17.2803 199.226 17.2803 198.534 17.2803H188.103C188.501 21.1041 191.331 25.2135 194.608 28.0482C197.787 30.7855 198.982 31.9696 199.275 32.3457C199.722 32.9586 199.771 33.481 199.771 34.0451C199.771 35.6541 197.836 37.2073 196.396 37.2073C195.6 37.2073 194.957 37.2073 191.527 33.8571C188.599 30.9736 187.153 29.1348 185.169 25.5896C184.575 26.7736 182.786 30.1726 178.615 33.8989C177.274 35.0829 174.891 37.2491 173.201 37.2491C171.608 37.2491 170.168 35.3615 170.168 34.3237C170.168 33.0979 170.916 32.485 172.006 31.6283C173.298 30.5905 180.746 25.0602 181.738 17.2733H171.209L171.223 17.2803Z" fill="#0764AB"/>
<path d="M225.321 23.6603C226.712 25.6941 227.208 26.307 231.728 31.5935C232.574 32.5825 232.818 32.9656 232.818 33.5785C232.818 33.9546 232.72 34.2402 232.671 34.3795C233.167 34.282 233.314 34.2402 234.607 34.0521L246.924 32.2551V10.2456C246.924 7.88444 246.924 6.47053 250.054 6.47053C252.737 6.47053 252.737 8.21876 252.737 10.2456V31.4542C253.932 31.2661 254.379 31.2173 254.875 31.2173C257.558 31.2173 257.558 33.481 257.558 33.9546C257.558 36.4133 255.916 36.6013 254.03 36.8799L252.737 37.068V45.6628C252.737 48.024 252.737 49.4379 249.656 49.4379C246.924 49.4379 246.924 47.6897 246.924 45.6628V37.8202L235.452 39.3804C234.257 39.5197 234.111 39.5684 233.866 39.5684C231.183 39.5684 230.988 37.3466 231.085 36.1207C230.736 36.26 230.443 36.3575 229.996 36.3575C229.101 36.3575 228.354 36.3575 225.328 32.1507V45.6559C225.328 47.9195 225.328 49.4309 222.345 49.4309C219.711 49.4309 219.711 47.634 219.711 45.6559V33.3765C215.687 38.9485 214.443 39.2341 213.451 39.2341C211.963 39.2341 210.67 37.9595 210.67 36.3506C210.67 35.4033 211.069 34.7904 212.256 33.467C213.004 32.6661 217.028 28.3199 219.362 23.5001H215.931C214.192 23.5001 211.956 23.5001 211.956 20.8046C211.956 18.1091 214.192 18.1579 215.931 18.1579H219.704V13.7629C217.168 13.9997 215.282 14.1878 214.541 14.1878C213.297 14.1878 211.956 13.7142 211.956 11.7779C211.956 10.364 212.899 9.4655 214.387 9.17993C215.282 9.04063 219.851 8.4695 220.892 8.28144C222.031 8.09339 227.201 6.86754 228.046 6.86754C230.38 6.86754 230.827 8.47646 230.827 9.65356C230.827 11.8267 229.583 12.0635 225.314 12.8644V18.1509H228.444C230.184 18.1509 232.42 18.1509 232.42 20.7976C232.42 23.4443 230.184 23.4931 228.444 23.4931H225.314V23.6324L225.321 23.6603ZM241.363 29.3298C240.322 29.3298 240.021 29.0442 237.094 26.4045C236.598 25.9796 234.565 24.1826 233.964 23.709C233.768 23.521 233.517 22.908 233.517 22.4344C233.517 21.5847 234.16 19.5509 236.298 19.5509C237.639 19.5509 239.623 21.2016 240.818 22.1976C244.193 24.9836 244.193 25.7428 244.193 26.7318C244.193 27.4841 243.298 29.3298 241.363 29.3298ZM242.753 18.5131C241.712 18.5131 241.412 18.325 238.932 16.2495C238.289 15.7271 235.257 13.5122 234.76 12.9411C234.411 12.5649 234.216 12.1401 234.216 11.5272C234.216 10.2526 235.557 8.74114 237.199 8.74114C238.289 8.74114 238.638 9.0267 241.621 11.3879C244.751 13.8465 245.443 14.5987 245.443 15.9221C245.443 17.0086 244.353 18.5201 242.76 18.5201L242.753 18.5131Z" fill="#0764AB"/>
<path d="M275.29 30.1795C273.257 30.1795 271.315 30.1795 271.315 27.7209C271.315 25.0324 273.006 25.0324 275.29 25.0324H284.925V20.8255H280.006C277.624 23.709 276.681 24.7468 275.186 24.7468C273.795 24.7468 272.104 23.2842 272.104 21.912C272.104 21.0623 272.698 20.2126 273.697 19.1748C275.088 17.6634 277.568 14.1182 278.413 12.8435H270.812C270.169 12.8435 269.324 12.8435 269.324 14.1182V41.651C269.324 42.2639 269.624 42.8281 270.567 42.8281H302.504C304.69 42.8281 306.528 42.8281 306.528 45.426C306.528 48.4489 305.138 48.4489 302.504 48.4489H268.478C267.884 48.4489 263.462 47.7872 263.462 43.6291V11.4714C263.462 10.0575 264.601 7.36206 268.129 7.36206H301.358C303.496 7.36206 305.333 7.36206 305.333 9.91126C305.333 12.8366 303.845 12.8366 301.358 12.8366H284.422C284.471 13.0246 284.52 13.1639 284.52 13.4008C284.52 14.1112 284.219 14.5361 283.479 15.7619H299.024C301.008 15.7619 303 15.7619 303 18.2206C303 20.8185 301.211 20.8185 299.024 20.8185H290.78V25.0254H300.715C302.755 25.0254 304.69 25.0254 304.69 27.4841C304.69 30.1795 303 30.1795 300.715 30.1795H292.275C295.852 33.9128 298.381 34.8113 302.559 36.3227C303.649 36.6988 304.844 37.1725 304.844 39.0182C304.844 39.7286 304.593 42.041 302.511 42.041C301.421 42.041 299.779 41.4281 299.234 41.24C293.372 39.1645 289.997 35.4799 288.453 33.7805C285.47 38.5028 278.218 42.3753 275.437 42.3753C272.111 42.3753 272.007 39.8261 272.007 39.3525C272.007 38.0292 272.754 37.5137 273.697 37.1307C278.909 34.9576 281.543 33.871 283.632 30.1865H275.29V30.1795Z" fill="#0764AB"/>
<path d="M323.177 7.41081C325.658 7.41081 327.348 9.29834 327.348 11.6177C327.348 12.0426 327.202 14.0276 326.405 17.2385C325.706 19.934 325.511 20.923 325.21 22.3369C326.405 25.5965 327.446 28.4313 327.446 32.3526C327.446 36.6013 326.007 39.8122 321.438 39.8122C319.349 39.8122 318.559 39.2898 317.958 38.9137V45.433C317.958 47.5086 317.958 49.2081 315.129 49.2081C312.648 49.2081 312.648 47.2718 312.648 45.433V12.1331C312.648 10.8098 312.697 7.41081 317.022 7.41081H323.184H323.177ZM318.86 12.6555C318.063 12.6555 317.965 12.7042 317.965 13.3659V34.3377C318.608 34.2889 319.852 34.3377 320.103 34.3377C321.494 34.3377 322.087 34.3377 322.087 31.1268C322.087 28.8632 321.542 26.6901 320.348 23.9946C320.047 23.3817 319.852 22.8593 319.852 22.2464C319.852 21.4941 321.689 14.738 321.689 13.2754C321.689 12.9898 321.689 12.6625 320.844 12.6625H318.86V12.6555ZM348.658 42.7375C348.658 43.3017 348.658 43.5385 349.301 43.5385H350.342C351.432 43.5385 351.432 43.3017 351.732 41.4142C352.032 39.5266 352.277 37.9177 354.366 37.9177C356.748 37.9177 357 39.3804 357 40.7037C357 43.2042 356.301 48.7832 352.032 48.7832H347.512C343.292 48.7832 343.292 46.422 343.292 44.5763V32.9098H339.617C338.674 42.8281 333.21 48.8737 329.982 48.8737C328.389 48.8737 327.299 48.0728 327.299 46.5613C327.299 45.5235 327.551 45.3355 329.535 43.2112C333.21 39.3386 333.608 36.6013 334.105 32.9168H332.015C330.031 32.9168 328.04 32.9168 328.04 30.4581C328.04 27.8114 329.78 27.8114 332.015 27.8114H352.675C354.659 27.8114 356.651 27.8114 356.651 30.2701C356.651 32.9168 354.911 32.9168 352.675 32.9168H348.651V42.7375H348.658ZM338.974 10.3849V9.48639C338.974 7.68941 338.974 6.08745 342.006 6.08745C344.689 6.08745 344.689 7.92622 344.689 9.48639V10.3849H351.397C354.478 10.3849 355.77 12.6485 355.77 14.3968V17.942C355.77 20.0663 355.77 21.7658 352.99 21.7658C352.542 21.7658 352.291 21.6683 351.997 21.6265C351.9 24.1269 350.258 24.1269 348.022 24.1269H336.005C333.916 24.1269 332.183 24.1269 332.029 21.8145C331.778 21.912 331.484 22.0026 330.737 22.0026C328.054 22.0026 328.054 20.2544 328.054 18.2275V13.8326C328.054 11.7988 329.591 10.3849 332.029 10.3849H338.981H338.974ZM333.511 19.2166C334.105 19.0285 334.454 19.0285 335.991 19.0285H348.008C349.65 19.0285 349.846 19.0285 350.342 19.1678V16.4723C350.342 16.145 350.09 15.7201 349.398 15.7201H334.398C334.098 15.7201 333.504 15.7201 333.504 16.4305V19.2166H333.511Z" fill="#0764AB"/>
</g>
<defs>
<clipPath id="clip0_1_324">
<rect width="357" height="54" fill="white"/>
</clipPath>
</defs>
</svg>
