<svg width="429" height="65" viewBox="0 0 429 65" fill="none" xmlns="http://www.w3.org/2000/svg">
<g clip-path="url(#clip0_1_870)">
<path d="M27.4123 44.351C26.5391 44.351 25.6743 44.2672 24.818 44.0995C22.1397 43.5797 19.7889 42.2551 18.009 40.2849C17.3037 39.4968 17.3961 38.323 18.2273 37.6439C19.05 36.9732 20.2926 37.0655 20.9979 37.8452C23.3739 40.4944 27.2863 41.3161 30.9553 39.9579C35.1028 38.4153 37.0422 34.609 35.9004 30.2578C35.17 27.4743 32.8611 24.1795 30.015 21.8739C29.2258 21.2367 28.2854 20.6247 27.2863 19.9875C25.8422 19.0569 24.3478 18.1012 23.0968 16.8855C21.5352 15.3764 20.6369 13.75 20.343 11.9139C19.9484 9.42389 20.4186 7.00935 21.7031 4.94692C22.9709 2.90964 24.9271 1.38378 27.3451 0.528629C28.9571 -0.0414729 30.8545 -0.150463 32.7016 0.210043C34.4479 0.553781 35.9004 1.26641 36.6896 2.17186C37.3865 2.96833 37.2689 4.14207 36.4377 4.80439C35.6066 5.46672 34.3724 5.35773 33.6755 4.56965C33.5412 4.42712 32.8863 4.05823 31.8452 3.8654C30.737 3.65581 29.6204 3.71449 28.7136 4.04146C25.4644 5.19005 23.7013 8.06571 24.2303 11.3606C24.6165 13.7583 26.9841 15.2842 29.4944 16.8939C30.5355 17.5646 31.6186 18.2605 32.5757 19.0318C34.1877 20.3397 35.6821 21.9326 36.9079 23.6429C38.2596 25.5293 39.2335 27.5079 39.7205 29.3607C40.4761 32.2531 40.2158 35.2126 38.9901 37.7026C37.6803 40.3519 35.4051 42.3389 32.391 43.454C30.779 44.0576 29.0998 44.3594 27.4291 44.3594L27.4123 44.351Z" fill="white"/>
<path d="M56.5542 61.7977L47.8729 53.7073C49.4178 52.6593 51.6091 51.0161 53.7248 48.9034C54.472 48.1572 54.4468 46.9751 53.666 46.2624C52.8852 45.5498 51.6426 45.575 50.887 46.3211C49.0483 48.1488 47.1257 49.6076 45.7404 50.555C45.7404 49.5154 45.6229 48.4003 45.413 47.2014C45.2283 46.187 44.2124 45.4995 43.1461 45.6756C42.0798 45.8516 41.3578 46.8158 41.5425 47.8386C42.2645 51.8042 41.6097 54.3193 39.3092 56.5327C38.3017 57.4968 36.3455 58.1759 33.7848 58.4526C31.4088 58.7125 29.0663 58.5783 27.7818 58.3771C25.1287 57.9747 21.1659 56.0883 18.7479 52.9192C18.0091 51.9551 17.3878 51.0245 16.8421 50.2112C15.314 47.9308 13.9875 45.9606 11.4688 45.2564C9.51253 44.7114 7.61508 44.8456 5.9779 45.6337C5.12993 46.0361 4.3827 46.6062 3.72783 47.3272C3.37521 46.6565 2.61119 46.2289 1.7884 46.3127C0.705343 46.4134 -0.0838623 47.3272 0.0252831 48.3584L0.705343 54.9565C0.00849146 59.9449 1.47776 63.2733 1.70444 63.7512C1.74642 63.8518 1.80519 63.944 1.86396 64.0362C1.86396 64.0362 1.86396 64.0446 1.87236 64.053C1.89755 64.0865 1.92273 64.12 1.94792 64.1452C1.94792 64.1452 1.96471 64.162 1.96471 64.1704C1.9815 64.1955 1.9983 64.2123 2.02348 64.2374C2.03188 64.2458 2.04027 64.2542 2.04867 64.271C2.07386 64.2961 2.09904 64.3213 2.12423 64.338C2.14102 64.3464 2.14942 64.3632 2.16621 64.3716C2.183 64.3883 2.19979 64.4051 2.21659 64.4135C2.23338 64.4303 2.25017 64.4386 2.26696 64.4554C2.29215 64.4722 2.30894 64.4889 2.33413 64.5057C2.34252 64.5141 2.35931 64.5225 2.36771 64.5309C2.3929 64.5476 2.42648 64.5644 2.45167 64.5895C2.45167 64.5895 2.46006 64.5895 2.46846 64.5979C2.50204 64.6147 2.53563 64.6315 2.56921 64.6566C2.56921 64.6566 2.586 64.6566 2.586 64.665C2.66156 64.7069 2.74552 64.7405 2.82108 64.7656C2.90504 64.7908 2.989 64.8159 3.08135 64.8327C3.16531 64.8494 3.24927 64.8578 3.33323 64.8662C3.34162 64.8662 3.35841 64.8662 3.36681 64.8662C3.40039 64.8662 3.43398 64.8662 3.46756 64.8662C3.46756 64.8662 3.47596 64.8662 3.48435 64.8662C3.5767 64.8662 3.66906 64.8662 3.76141 64.8494C3.76141 64.8494 3.76981 64.8494 3.7782 64.8494C3.80339 64.8494 3.82858 64.8494 3.85377 64.8327C3.86216 64.8327 3.87056 64.8327 3.88735 64.8327C3.90414 64.8327 3.92933 64.8327 3.94612 64.8159C3.96291 64.8159 3.9797 64.8159 3.9965 64.8075C4.01329 64.8075 4.02168 64.8075 4.03847 64.7991C4.06366 64.7991 4.08885 64.7824 4.11404 64.774C4.11404 64.774 4.13083 64.774 4.13922 64.774C4.30714 64.7153 4.45826 64.6482 4.5926 64.556C4.60099 64.556 4.60939 64.5392 4.62618 64.5309C4.64297 64.5225 4.65137 64.5141 4.66816 64.4973C4.68495 64.4806 4.71014 64.4638 4.72693 64.4554C4.72693 64.4554 4.72693 64.4554 4.73532 64.447C4.85287 64.3548 4.96201 64.2458 5.05437 64.1284C5.07116 64.1117 5.08795 64.0865 5.10474 64.0697C5.10474 64.0697 5.10474 64.0614 5.11314 64.053C5.12153 64.0362 5.13832 64.0194 5.14672 64.0027C5.14672 63.9943 5.15511 63.9859 5.16351 63.9775C5.17191 63.9608 5.1803 63.9524 5.1887 63.9356C5.1887 63.9188 5.20549 63.9104 5.21389 63.8937C5.21389 63.8853 5.22228 63.8769 5.23068 63.8601C5.23907 63.8434 5.24747 63.8266 5.25586 63.8098C5.25586 63.8098 5.25586 63.8015 5.26426 63.7931C5.27266 63.7679 5.28105 63.7512 5.29784 63.726C5.33982 63.617 5.3818 63.508 5.40699 63.3907C5.40699 63.3907 5.41538 63.332 5.42378 63.3068C5.42378 63.3068 5.42378 63.2984 5.42378 63.29C5.42378 63.2649 5.42378 63.2481 5.43218 63.223C5.43218 63.2062 5.43218 63.1894 5.43218 63.1643C5.43218 63.1559 5.43218 63.1475 5.43218 63.1308C5.43218 63.0301 5.43218 62.9295 5.42378 62.8289L4.62618 55.0906C4.76891 54.2187 4.99559 53.2713 5.33982 52.2737C5.91074 50.6053 6.70834 49.5154 7.72423 49.0291C8.65616 48.5848 9.66366 48.7189 10.3521 48.9034C11.41 49.1968 12.1656 50.2615 13.5173 52.2737C14.0966 53.1372 14.7515 54.1097 15.5575 55.1661C18.6472 59.2155 23.6007 61.5797 27.1437 62.1163C28.7473 62.3594 31.4424 62.5187 34.213 62.2085C37.756 61.8229 40.4007 60.8084 42.0798 59.2071C43.1461 58.1843 43.9689 57.0944 44.565 55.8955L53.8004 64.4973C54.1866 64.8494 54.6819 65.0339 55.1773 65.0339C55.6726 65.0339 56.1932 64.8494 56.5794 64.4722C57.335 63.7344 57.3266 62.5523 56.5458 61.8313L56.5542 61.7977Z" fill="white"/>
<path d="M12.7112 23.995L13.5592 23.0728C13.7439 22.8716 13.7271 22.5614 13.5088 22.3853C13.2905 22.2093 12.9799 22.2261 12.7868 22.4273L11.6786 23.6262C11.561 23.601 11.4519 23.5842 11.3343 23.5675V22.4189C11.3343 22.1506 11.1076 21.9326 10.8222 21.9326C10.5367 21.9326 10.31 22.1506 10.31 22.4189V23.5675C10.1925 23.5842 10.075 23.601 9.96581 23.6262L8.85757 22.4273C8.67286 22.2261 8.35382 22.2093 8.13553 22.3853C7.92563 22.5614 7.90045 22.8716 8.08515 23.0728L8.93313 23.995C7.70734 24.6322 6.87616 25.8646 6.87616 27.2815C6.87616 29.3523 8.63928 31.0207 10.8054 31.0207C12.9715 31.0207 14.7346 29.3439 14.7346 27.2815C14.7346 25.8646 13.9034 24.6238 12.6777 23.995H12.7112Z" fill="white"/>
<path d="M50.9877 23.995L51.8356 23.0728C52.0204 22.8716 52.0036 22.5614 51.7853 22.3853C51.5754 22.2093 51.2563 22.2261 51.0632 22.4273L49.955 23.6262C49.8374 23.601 49.7283 23.5842 49.6108 23.5675V22.4189C49.6108 22.1506 49.3841 21.9326 49.0986 21.9326C48.8132 21.9326 48.5865 22.1506 48.5865 22.4189V23.5675C48.4689 23.5842 48.3514 23.601 48.2422 23.6262L47.134 22.4273C46.9493 22.2261 46.6302 22.2093 46.412 22.3853C46.2021 22.5614 46.1769 22.8716 46.3616 23.0728L47.2096 23.995C45.9838 24.6322 45.1526 25.8646 45.1526 27.2815C45.1526 29.3523 46.9157 31.0207 49.0818 31.0207C51.2479 31.0207 53.0111 29.3439 53.0111 27.2815C53.0111 25.8646 52.1799 24.6238 50.9541 23.995H50.9877Z" fill="white"/>
<path d="M89.1801 54.8561C89.1801 56.449 89.1801 59.4001 85.6623 59.4001C82.1445 59.4001 82.0773 55.9879 82.0773 54.8561V34.7348C80.4653 37.971 79.9868 38.8848 78.0221 38.8848C75.814 38.8848 74.4371 36.9482 74.4371 35.4726C74.4371 34.5671 76.343 31.44 77.065 30.1824C80.7676 23.928 83.3283 14.6052 84.5289 10.3378C85.2425 7.72205 86.8545 7.437 87.8704 7.437C89.3061 7.437 91.447 8.17478 91.447 10.3965C91.447 10.7402 91.2119 13.9177 89.1801 19.2666V39.7316C91.5058 36.6631 94.1337 33.1922 95.2671 31.4903C98.1888 26.9462 99.5657 23.1903 99.9855 21.9411H96.9463C95.6365 21.9411 92.169 21.9411 92.169 18.5288C92.169 15.1166 95.6281 15.0579 96.9463 15.0579H101.723C102.084 13.6913 102.739 10.4552 103.159 8.45983C103.335 7.49568 104.234 6.69922 106.022 6.69922C107.214 6.69922 110.077 7.21063 110.077 10.3378C110.077 11.7631 109.657 14.4878 109.54 15.0579H125.358C126.609 15.0579 130.135 15.1166 130.135 18.5288C130.135 21.9411 126.617 21.9411 125.358 21.9411H107.987C106.492 26.8288 105.183 29.5033 104.343 31.2639H123.796C125.173 31.2639 128.573 31.2639 128.573 34.5588C128.573 37.8536 124.988 37.8536 123.796 37.8536H116.693V51.2175H125.349C130.126 51.2175 130.126 54.2273 130.126 54.571C130.126 55.0237 130.126 57.9832 125.349 57.9832H99.2047C96.0395 57.9832 94.4275 56.5077 94.4275 54.6297C94.4275 51.9049 96.8791 51.2175 99.2047 51.2175H109.112V37.8536H104.335C102.605 37.8536 102.009 37.8536 100.934 37.1745C100.456 37.8033 95.9807 44.3343 93.4704 46.0446C92.9918 46.3297 91.9172 46.7824 91.0188 46.7824C90.2464 46.7824 89.5244 46.4974 89.1718 46.3297V54.8561H89.1801Z" fill="white"/>
<path d="M185.337 19.3846V21.9417C185.337 22.6208 185.102 25.3539 181.039 25.3539H143.551C139.614 25.3539 139.253 22.7968 139.253 21.9417V19.3846C137.817 19.3846 135.13 19.3846 135.13 16.7102C135.13 14.0357 138.052 14.0357 138.589 14.0357H139.244V11.5373C139.244 10.8582 139.479 8.06641 143.543 8.06641H181.03C184.968 8.06641 185.329 10.6822 185.329 11.5373V14.0357C187.361 14.0357 189.98 14.0357 189.98 16.7102C189.98 19.0996 187.654 19.3846 186.521 19.3846H185.329H185.337ZM155.557 52.5847C155.675 52.8697 155.801 53.2637 155.801 53.8339C155.801 54.9741 155.624 55.5945 151.208 57.3048C150.31 57.6485 143.627 60.0295 139.572 60.0295C136.591 60.0295 136.465 57.5311 136.465 57.0197C136.465 54.5213 138.497 54.2363 142.132 53.6662C143.207 53.4985 145.239 52.9284 146.49 52.5847H144.702C140.705 52.5847 139.807 49.9102 139.807 48.267V31.0382C139.807 29.3865 140.705 26.7205 144.702 26.7205H179.855C183.851 26.7205 184.808 29.3949 184.808 31.0382V48.267C184.808 49.9186 183.851 52.5847 179.855 52.5847H178.721C179.913 52.9787 185.228 54.1776 186.303 54.4626C187.915 54.9154 188.452 56.1646 188.452 57.0197C188.452 57.8162 188.091 60.4906 185.472 60.4906C184.699 60.4906 176.874 59.0654 171.148 56.458C170.074 55.9466 168.764 55.3178 168.764 53.6746C168.764 53.2805 168.881 52.8781 168.94 52.593H155.574L155.557 52.5847ZM158.899 14.0357V12.3841H147.556C146.179 12.3841 146.179 12.6691 146.179 14.0357H158.89H158.899ZM146.188 19.3846C146.188 20.1811 146.188 20.5751 146.364 20.8099C146.54 21.0362 146.901 21.0949 147.556 21.0949H158.899V19.393H146.188V19.3846ZM177.697 33.939C177.697 32.2874 177.638 32.061 176.203 32.061H148.505C147.069 32.061 147.069 32.346 147.069 33.939H177.689H177.697ZM147.078 38.374V40.4197H177.697V38.374H147.078ZM147.078 44.9637V45.8692C147.078 46.7746 147.254 47.0597 148.513 47.0597H176.152C177.647 47.0597 177.705 46.892 177.705 44.9554H147.086L147.078 44.9637ZM178.595 14.0357C178.595 13.3566 178.595 12.9542 178.478 12.7278C178.302 12.4428 177.999 12.3841 177.403 12.3841H165.582V14.0357H178.595ZM165.582 19.3846V21.0865H176.983C178.595 21.0865 178.595 20.3487 178.595 19.3846H165.582Z" fill="white"/>
<path d="M205.756 20.8007C204.261 20.8007 204.261 21.8822 204.261 22.5026V54.7972C204.261 57.1866 204.203 59.3412 200.802 59.3412C197.402 59.3412 197.284 57.6896 197.284 54.7972V19.2664C197.284 17.8998 198.838 14.2026 202.717 14.2026H218.534V11.7545C218.534 9.13873 218.534 7.26074 221.876 7.26074C225.813 7.26074 225.813 10.0442 225.813 11.7545V14.2026H242.286C244.737 14.2026 247.298 16.0806 247.298 19.5431V52.6341C247.298 58.6621 242.042 58.8885 238.76 58.8885C231.598 58.8885 230.162 57.7483 230.162 55.6523C230.162 53.5564 231.002 51.8964 232.967 51.8964C233.865 51.8964 237.685 52.2904 238.457 52.2904C240.304 52.2904 240.304 51.9467 240.304 50.2447V22.2259C240.304 20.8007 239.406 20.8007 238.575 20.8007H226.04C226.519 25.4034 229.919 30.3499 233.857 33.7621C237.677 37.0569 239.112 38.4822 239.465 38.9349C240.002 39.6727 240.061 40.3015 240.061 40.9806C240.061 42.9173 237.735 44.7869 236.006 44.7869C235.049 44.7869 234.276 44.7869 230.154 40.7542C226.636 37.2833 224.898 35.07 222.514 30.8026C221.8 32.2279 219.651 36.3192 214.639 40.8045C213.027 42.2298 210.164 44.8372 208.132 44.8372C206.218 44.8372 204.488 42.5651 204.488 41.3159C204.488 39.8404 205.386 39.1026 206.696 38.0714C208.249 36.8222 217.199 30.1654 218.391 20.7923H205.739L205.756 20.8007Z" fill="white"/>
<path d="M270.764 28.4804C272.435 30.9285 273.031 31.6663 278.463 38.0296C279.479 39.2201 279.773 39.6812 279.773 40.419C279.773 40.8717 279.656 41.2155 279.597 41.3832C280.193 41.2658 280.369 41.2155 281.922 40.9891L296.724 38.8261V12.3331C296.724 9.49098 296.724 7.78906 300.486 7.78906C303.71 7.78906 303.71 9.89341 303.71 12.3331V37.8619C305.145 37.6356 305.683 37.5769 306.279 37.5769C309.503 37.5769 309.503 40.3016 309.503 40.8717C309.503 43.8312 307.53 44.0576 305.263 44.393L303.71 44.6193V54.965C303.71 57.8071 303.71 59.509 300.007 59.509C296.724 59.509 296.724 57.4047 296.724 54.965V45.5248L282.938 47.4028C281.503 47.5704 281.326 47.6291 281.033 47.6291C277.809 47.6291 277.573 44.9547 277.691 43.4791C277.271 43.6468 276.919 43.7642 276.381 43.7642C275.307 43.7642 274.408 43.7642 270.773 38.7003V54.9566C270.773 57.6814 270.773 59.5007 267.188 59.5007C264.023 59.5007 264.023 57.3376 264.023 54.9566V40.1759C259.187 46.883 257.692 47.2267 256.5 47.2267C254.712 47.2267 253.158 45.6925 253.158 43.7558C253.158 42.6156 253.637 41.8778 255.064 40.2849C255.963 39.3207 260.799 34.0892 263.603 28.2876H259.48C257.39 28.2876 254.703 28.2876 254.703 25.043C254.703 21.7985 257.39 21.8572 259.48 21.8572H264.014V16.567C260.967 16.852 258.7 17.0784 257.81 17.0784C256.315 17.0784 254.703 16.5083 254.703 14.1776C254.703 12.4756 255.837 11.3941 257.625 11.0504C258.7 10.8827 264.191 10.1952 265.442 9.96886C266.81 9.7425 273.023 8.26694 274.039 8.26694C276.843 8.26694 277.38 10.2036 277.38 11.6205C277.38 14.2362 275.886 14.5213 270.756 15.4854V21.8488H274.517C276.608 21.8488 279.295 21.8488 279.295 25.0346C279.295 28.2205 276.608 28.2792 274.517 28.2792H270.756V28.4469L270.764 28.4804ZM290.041 35.3049C288.79 35.3049 288.429 34.9611 284.911 31.7836C284.315 31.2722 281.872 29.1092 281.15 28.5391C280.915 28.3127 280.613 27.575 280.613 27.0048C280.613 25.982 281.385 23.5339 283.954 23.5339C285.566 23.5339 287.951 25.5209 289.386 26.7198C293.441 30.0733 293.441 30.9872 293.441 32.1777C293.441 33.0831 292.367 35.3049 290.041 35.3049ZM291.712 22.2847C290.461 22.2847 290.1 22.0584 287.119 19.56C286.347 18.9312 282.703 16.2651 282.107 15.5777C281.687 15.1249 281.452 14.6135 281.452 13.8757C281.452 12.3415 283.064 10.5222 285.037 10.5222C286.347 10.5222 286.767 10.8659 290.352 13.7081C294.113 16.6676 294.944 17.573 294.944 19.1659C294.944 20.4738 293.635 22.2931 291.72 22.2931L291.712 22.2847Z" fill="white"/>
<path d="M330.811 36.3278C328.368 36.3278 326.034 36.3278 326.034 33.3683C326.034 30.1321 328.066 30.1321 330.811 30.1321H342.389V25.0683H336.478C333.615 28.5392 332.482 29.7884 330.685 29.7884C329.015 29.7884 326.983 28.0278 326.983 26.3762C326.983 25.3533 327.696 24.3305 328.897 23.0813C330.568 21.262 333.548 16.9946 334.564 15.4604H325.43C324.657 15.4604 323.641 15.4604 323.641 16.9946V50.136C323.641 50.8738 324.002 51.5529 325.136 51.5529H363.513C366.141 51.5529 368.349 51.5529 368.349 54.6801C368.349 58.3186 366.678 58.3186 363.513 58.3186H322.625C321.912 58.3186 316.597 57.5222 316.597 52.517V13.8088C316.597 12.1069 317.966 8.8623 322.206 8.8623H362.136C364.705 8.8623 366.913 8.8623 366.913 11.9308C366.913 15.452 365.125 15.452 362.136 15.452H341.785C341.843 15.6784 341.902 15.8461 341.902 16.1311C341.902 16.9863 341.541 17.4977 340.651 18.9732H359.332C361.716 18.9732 364.109 18.9732 364.109 21.9327C364.109 25.0599 361.96 25.0599 359.332 25.0599H349.425V30.1238H361.364C363.815 30.1238 366.141 30.1238 366.141 33.0833C366.141 36.3278 364.109 36.3278 361.364 36.3278H351.221C355.52 40.8215 358.559 41.9031 363.58 43.7224C364.89 44.1751 366.325 44.7452 366.325 46.9669C366.325 47.8221 366.023 50.6055 363.521 50.6055C362.212 50.6055 360.239 49.8677 359.584 49.6414C352.54 47.143 348.484 42.7079 346.629 40.6623C343.044 46.3465 334.329 51.0079 330.988 51.0079C326.991 51.0079 326.865 47.9394 326.865 47.3693C326.865 45.7764 327.764 45.156 328.897 44.6949C335.16 42.0791 338.325 40.7712 340.836 36.3362H330.811V36.3278Z" fill="white"/>
<path d="M388.356 8.92106C391.336 8.92106 393.368 11.1931 393.368 13.9849C393.368 14.4963 393.192 16.8857 392.235 20.7507C391.395 23.9952 391.16 25.1857 390.799 26.8877C392.235 30.8113 393.486 34.2235 393.486 38.9436C393.486 44.0578 391.756 47.9227 386.265 47.9227C383.755 47.9227 382.806 47.2939 382.084 46.8412V54.6885C382.084 57.1869 382.084 59.2326 378.684 59.2326C375.704 59.2326 375.703 56.9019 375.703 54.6885V14.6053C375.703 13.0124 375.762 8.92106 380.959 8.92106H388.364H388.356ZM383.167 15.2341C382.21 15.2341 382.093 15.2928 382.093 16.0893V41.333C382.865 41.2743 384.36 41.333 384.662 41.333C386.333 41.333 387.046 41.333 387.046 37.4681C387.046 34.7433 386.391 32.1276 384.956 28.883C384.595 28.1452 384.36 27.5164 384.36 26.7787C384.36 25.8732 386.568 17.7409 386.568 15.9803C386.568 15.6365 386.568 15.2425 385.552 15.2425H383.167V15.2341ZM418.975 51.444C418.975 52.1231 418.975 52.4081 419.748 52.4081H420.999C422.309 52.4081 422.309 52.1231 422.67 49.851C423.031 47.579 423.324 45.6423 425.835 45.6423C428.698 45.6423 429 47.4029 429 48.9959C429 52.0057 428.16 58.7211 423.031 58.7211H417.599C412.527 58.7211 412.527 55.879 412.527 53.6573V39.6143H408.111C406.978 51.553 400.412 58.8301 396.533 58.8301C394.619 58.8301 393.309 57.866 393.309 56.0467C393.309 54.7975 393.612 54.5711 395.996 52.0141C400.412 47.3526 400.891 44.0578 401.487 39.6227H398.977C396.592 39.6227 394.199 39.6227 394.199 36.6632C394.199 33.4774 396.29 33.4774 398.977 33.4774H423.803C426.187 33.4774 428.58 33.4774 428.58 36.4369C428.58 39.6227 426.49 39.6227 423.803 39.6227H418.967V51.444H418.975ZM407.339 12.501V11.4194C407.339 9.25641 407.339 7.32812 410.983 7.32812C414.207 7.32812 414.207 9.54146 414.207 11.4194V12.501H422.267C425.969 12.501 427.522 15.2257 427.522 17.3301V21.5974C427.522 24.1545 427.522 26.2002 424.181 26.2002C423.644 26.2002 423.341 26.0828 422.989 26.0325C422.871 29.0423 420.898 29.0423 418.211 29.0423H403.771C401.26 29.0423 399.178 29.0423 398.993 26.2589C398.691 26.3762 398.339 26.4852 397.44 26.4852C394.216 26.4852 394.216 24.3809 394.216 21.9412V16.651C394.216 14.2029 396.063 12.501 398.993 12.501H407.347H407.339ZM400.773 23.1317C401.487 22.9053 401.907 22.9053 403.754 22.9053H418.195C420.168 22.9053 420.403 22.9053 420.999 23.073V19.8284C420.999 19.4344 420.697 18.923 419.865 18.923H401.84C401.479 18.923 400.765 18.923 400.765 19.7781V23.1317H400.773Z" fill="white"/>
</g>
<defs>
<clipPath id="clip0_1_870">
<rect width="429" height="65" fill="white"/>
</clipPath>
</defs>
</svg>
