<svg width="74" height="75" viewBox="0 0 74 75" fill="none" xmlns="http://www.w3.org/2000/svg">
<path d="M74.0015 22.8567C73.7602 23.4085 73.5845 24.0053 73.264 24.5062C72.4144 25.831 71.1517 26.463 69.5955 26.4943C68.0394 26.5256 66.5604 26.4943 65.0428 26.4943C63.3399 26.4943 62.751 25.5042 63.531 23.9681C63.7259 23.6083 63.8461 23.2119 63.8841 22.8032C63.9221 22.3946 63.8771 21.9824 63.752 21.592C63.6269 21.2017 63.4243 20.8414 63.1566 20.5333C62.889 20.2253 62.5619 19.9761 62.1956 19.801C61.8293 19.6259 61.4316 19.5286 61.0268 19.5151C60.622 19.5017 60.2188 19.5724 59.842 19.7228C59.4651 19.8732 59.1227 20.1002 58.8357 20.3898C58.5487 20.6794 58.3233 21.0255 58.1732 21.4067C58.0028 21.8258 57.9297 22.279 57.9594 22.7312C57.9892 23.1835 58.1212 23.6227 58.345 24.0151C59.1019 25.4455 58.4918 26.4865 56.8931 26.4943C55.4232 26.4943 53.9539 26.4943 52.4852 26.4943C49.6991 26.4786 47.8649 24.6256 47.8514 21.8138C47.8514 20.9411 47.8514 20.0683 47.8514 19.1408C45.7893 19.3365 44.015 18.8258 42.6055 17.3289C41.584 16.2679 41.0111 14.845 41.0088 13.3626C40.9528 9.72304 43.2658 7.63911 47.8514 7.27712V5.40452C47.8514 2.24047 48.5851 1.13687 51.4445 0H70.3814C72.2928 0.50484 73.4918 1.72975 73.9957 3.66106L74.0015 22.8567ZM66.7631 23.4633C66.8693 23.5142 66.9118 23.5533 66.9562 23.5533C67.7517 23.5533 68.5452 23.5748 69.3407 23.569C70.5744 23.569 71.1131 23.0211 71.1131 21.7864C71.1131 16.1001 71.1131 10.4131 71.1131 4.72552C71.1131 3.47124 70.5899 2.93707 69.36 2.93707C63.7466 2.93707 58.1346 2.93707 52.5238 2.93707C51.2862 2.93707 50.7591 3.46735 50.7533 4.7177C50.7533 6.23222 50.7533 7.74478 50.7533 9.25734C50.7533 10.7699 49.7088 11.398 48.3785 10.6564C48.0463 10.4569 47.6785 10.3256 47.2962 10.2702C46.9138 10.2148 46.5245 10.2363 46.1504 10.3335C44.9765 10.6447 44.2042 11.4196 43.9667 12.623C43.7292 13.8263 44.0671 14.8654 45.046 15.6148C46.0616 16.3975 47.1698 16.4719 48.3032 15.8751C49.786 15.0924 50.7495 15.6794 50.7533 17.3719C50.7533 18.8845 50.7533 20.399 50.7533 21.9116C50.7533 22.7765 51.1395 23.4105 51.8712 23.477C52.9312 23.5768 54.0066 23.5024 55.0763 23.5024C54.7558 18.9471 57.9724 16.6832 60.7102 16.5971C62.1691 16.5282 63.5985 17.0297 64.703 17.9981C66.3808 19.4422 66.9523 21.3324 66.7631 23.4633Z" fill="white"/>
<path d="M29.834 11.1005C27.9994 11.2311 26.1927 11.6264 24.4684 12.2745C23.5648 12.6033 22.6882 13.0083 21.8039 13.3918C20.9197 13.7753 20.0663 13.5523 19.7091 12.7754C19.3519 11.9986 19.6763 11.1846 20.5741 10.7424C23.8207 9.11697 27.3683 8.20163 30.9866 8.05577C32.2146 8.00881 32.7745 8.55278 32.7783 9.7914C32.7861 12.5008 32.7861 15.2109 32.7783 17.9217C32.7783 19.4401 31.7164 20.0565 30.3881 19.3364C29.0076 18.5889 27.4919 18.8707 26.5459 20.0428C26.1193 20.5801 25.8891 21.2502 25.894 21.9398C25.8989 22.6294 26.1387 23.2961 26.5729 23.8271C27.5093 24.9679 29.0115 25.2418 30.361 24.5179C31.7106 23.7939 32.7706 24.3985 32.7783 25.96C32.7861 27.5215 32.7783 29.036 32.7783 30.572C32.7783 31.6854 33.3228 32.2176 34.433 32.2313C35.2285 32.2313 36.022 32.2313 36.8175 32.2313C36.8889 32.2313 36.9584 32.2137 37.1206 32.1922C36.9024 29.8441 37.5879 27.8248 39.5283 26.3866C40.7929 25.4493 42.2313 25.1558 43.7759 25.3397C46.9115 25.7095 48.9021 28.4216 48.7688 32.2353H57.8646C59.1544 32.2353 59.6236 32.6599 59.7182 33.9317C60.1371 39.6415 58.9671 45.0089 56.1077 49.9379C52.3816 56.3413 49.9622 63.4378 48.9928 70.8066C48.8712 71.7008 48.7167 72.5892 48.5738 73.4795C48.3962 74.587 47.9309 74.9999 46.8362 75.0018C43.1986 75.0018 39.5611 75.0018 35.9236 75.0018H21.607C20.2169 75.0018 19.7419 74.5244 19.74 73.1136C19.74 70.8927 19.74 68.6698 19.74 66.4489V65.586C19.4195 65.5684 19.1607 65.5468 18.9078 65.5449C17.1701 65.5312 15.4325 65.5899 13.7064 65.496C12.0179 65.3855 10.4309 64.6402 9.25633 63.4059C8.08172 62.1717 7.40407 60.5376 7.35611 58.8235C7.30398 56.2367 7.33874 53.6479 7.3368 51.0611C7.3368 50.795 7.3368 50.5308 7.3368 50.1473H6.15712C4.61251 50.1473 3.06791 50.1688 1.53296 50.1355C0.374506 50.1121 -0.252989 49.2589 0.0964771 48.1592C2.5022 40.5729 4.86351 32.9729 7.38507 25.4277C8.01836 23.5375 9.14206 21.8078 10.1132 20.0447C10.5457 19.262 11.4358 19.1251 12.1193 19.583C12.2793 19.6839 12.4174 19.8167 12.5252 19.9733C12.6329 20.13 12.7082 20.3072 12.7463 20.4943C12.7844 20.6813 12.7846 20.8743 12.7468 21.0614C12.7091 21.2485 12.6342 21.4259 12.5267 21.5827C10.538 24.5296 9.52435 27.8835 8.47209 31.2334C6.89273 36.2994 5.26897 41.3498 3.66451 46.406C3.59114 46.6349 3.53129 46.8678 3.44248 47.1769C3.72051 47.1926 3.94833 47.2161 4.17616 47.2161C5.57403 47.2161 6.97189 47.2161 8.36783 47.2161C9.69232 47.2161 10.2156 47.7444 10.2175 49.0711C10.2175 52.0981 10.2175 55.1252 10.2175 58.1523C10.2175 60.9622 11.8374 62.602 14.6138 62.6098C16.6141 62.6098 18.6143 62.6098 20.6127 62.6098C22.1573 62.6098 22.6168 63.0794 22.6187 64.6741C22.6187 66.8474 22.6187 69.0201 22.6187 71.192V72.0237H45.865L46.506 68.0867C47.6324 61.2186 50.0132 54.6237 53.5262 48.6406C55.7929 44.7486 56.8761 40.524 56.9244 36.0176C56.9244 35.775 56.9244 35.5343 56.9244 35.2056C56.6309 35.1938 56.378 35.1723 56.1231 35.1723C53.088 35.1723 50.0528 35.1723 47.0177 35.1723C45.363 35.1723 44.7722 34.1666 45.5387 32.6755C45.7888 32.2168 45.9163 31.6998 45.9085 31.1758C45.9008 30.6518 45.758 30.1389 45.4944 29.688C45.2308 29.2371 44.8555 28.8638 44.4058 28.6052C43.956 28.3466 43.4474 28.2115 42.9302 28.2135C42.4131 28.2154 41.9055 28.3543 41.4576 28.6163C41.0097 28.8784 40.6372 29.2544 40.377 29.7073C40.1167 30.1602 39.9777 30.6741 39.9738 31.1982C39.9699 31.7222 40.1012 32.2383 40.3546 32.6951C41.1269 34.1705 40.5187 35.1684 38.8583 35.1723C37.3407 35.1723 35.8232 35.186 34.3056 35.1723C31.7357 35.141 29.917 33.2821 29.8899 30.6718C29.8803 29.7502 29.8899 28.8286 29.8899 27.8306C27.6541 28.0361 25.7716 27.4393 24.3467 25.7056C23.4003 24.5738 22.9235 23.1142 23.0165 21.6336C23.1555 18.675 25.5805 15.6519 29.834 16.0158V11.1005Z" fill="white"/>
</svg>
