<svg width="99" height="74" viewBox="0 0 99 74" fill="none" xmlns="http://www.w3.org/2000/svg">
<g clip-path="url(#clip0_80_892)">
<path d="M50.6691 36.419C50.4852 37.0081 50.2932 37.5918 50.1359 38.1836C49.9386 38.8937 49.7946 39.62 49.5707 40.3194C49.1467 41.6482 48.7708 41.8957 47.403 41.9011C46.4725 41.9011 45.5366 41.9011 44.6088 41.9011C44.5181 41.9156 44.4289 41.9381 44.3422 41.9683C43.5423 44.895 42.7424 47.8619 41.9426 50.8289C41.2867 53.2499 40.6094 55.6708 39.9775 58.0917C39.7349 59.0144 39.2577 59.6062 38.2631 59.5847C37.378 59.5658 36.8794 58.9687 36.7301 57.8093C35.5249 48.5694 34.3304 39.3268 32.9707 30.0492C32.704 31.0875 32.4374 32.1232 32.1708 33.1615C31.5762 35.534 30.9977 37.9092 30.3951 40.279C30.0778 41.5379 29.6432 41.8742 28.3608 41.8769H2.00767C0.749211 41.8769 0.0213279 41.2689 0.0239941 40.2629C0.0266604 39.2569 0.751871 38.6489 2.01833 38.6489H27.5155C28.4061 35.0606 29.2833 31.526 30.1631 27.9887C30.7524 25.6162 31.3389 23.2437 31.9388 20.8739C32.2215 19.7548 32.816 19.2276 33.7012 19.3379C34.6877 19.4617 35.0637 20.1126 35.1836 21.0622C36.3657 30.3066 37.5602 39.5501 38.7671 48.7927C38.7786 48.8776 38.8084 48.959 38.8545 49.031C38.9006 49.103 38.9617 49.164 39.0337 49.2096C39.1323 48.8895 39.239 48.5694 39.327 48.2466C40.0575 45.5567 40.7774 42.8668 41.5106 40.1984C41.8439 38.9852 42.2385 38.6705 43.4863 38.6436C44.5528 38.622 45.6193 38.6436 46.7231 38.6436C47.5923 35.5851 48.4508 32.5589 49.312 29.5355C49.376 29.3095 49.4533 29.0862 49.504 28.8576C49.7173 27.9269 50.2452 27.3351 51.237 27.3996C52.1782 27.4615 52.5702 28.0936 52.7488 28.9894C53.7406 34.3935 54.7565 39.7921 55.9163 45.215C56.1829 43.7625 56.4495 42.3126 56.6975 40.8601C58.0288 33.1669 59.362 25.4727 60.6969 17.7777C60.8915 16.6399 61.4407 16.0777 62.3366 16.1073C63.3444 16.1423 63.7577 16.7825 63.9363 17.7213C65.6481 26.399 67.3696 35.0749 69.1008 43.749C69.1675 44.0772 69.2475 44.4027 69.3541 44.8788C69.5701 44.5345 69.7381 44.3085 69.858 44.0718C70.4606 42.8398 71.1005 41.624 71.6338 40.3624C72.167 39.1009 72.9455 38.6328 74.324 38.6463C81.7894 38.7081 89.2309 38.6731 96.683 38.6758C97.0147 38.6532 97.3478 38.6631 97.6775 38.7054C98.5361 38.8803 99.04 39.4263 99.0267 40.3194C99.0133 41.1613 98.5174 41.6859 97.7095 41.858C97.3803 41.9057 97.0469 41.9183 96.715 41.8957C89.6282 41.8957 82.5413 41.8957 75.4545 41.8796C74.7159 41.8796 74.3453 42.1055 74.0254 42.7753C72.8336 45.2823 71.5591 47.7517 70.3433 50.2479C69.962 51.028 69.4874 51.6494 68.5383 51.5391C67.5891 51.4288 67.2185 50.7052 67.0425 49.7987C65.6205 42.5323 64.1781 35.2695 62.7152 28.0103C62.6584 27.6435 62.5306 27.2917 62.3393 26.9746C61.4612 32.0586 60.5849 37.1426 59.7103 42.2265C58.9851 46.4192 58.2581 50.6128 57.5294 54.8073C57.3454 55.8591 56.7802 56.4213 55.911 56.3836C54.9138 56.3433 54.4739 55.73 54.3112 54.7885C53.2038 48.79 52.0849 42.795 50.9544 36.8037C50.9331 36.6826 50.9011 36.5669 50.8718 36.4486L50.6691 36.419Z" fill="white"/>
<path d="M49.3307 16.3331C51.637 13.5679 53.7193 10.7193 56.1562 8.22302C61.2861 2.9669 67.5277 0.034874 74.9479 0.0187344C83.1812 0.00259479 89.1003 4.45981 91.4305 12.4247C93.4889 19.4616 92.8277 26.4123 90.74 33.3254C90.4894 34.1566 90.1854 34.9744 89.8708 35.7867C89.4469 36.8788 88.7057 37.285 87.8045 36.9649C86.8313 36.6152 86.4713 35.7921 86.8899 34.6785C88.1931 31.2994 89.0153 27.7511 89.3322 24.1393C89.6442 20.4326 89.4549 16.7689 88.3057 13.1967C86.0074 6.04418 80.379 2.50422 72.9429 3.30313C65.808 4.07245 60.3342 7.67694 55.9536 13.1429C54.1832 15.3513 52.6955 17.7938 51.1384 20.1663C50.1545 21.67 48.7921 21.7211 47.8936 20.1663C45.3047 15.7064 42.3265 11.5585 38.2738 8.33059C34.1225 5.00853 29.4059 3.24933 24.0868 3.23857C17.4798 3.23857 12.8112 6.6198 10.7556 12.968C8.92387 18.6411 9.29448 24.3518 10.6729 30.0437C11.0435 31.5689 11.5874 33.0511 12.078 34.544C12.486 35.776 12.2247 36.5695 11.2328 36.9488C10.3023 37.3038 9.53978 36.8896 9.09985 35.7249C6.2843 28.0908 5.22047 20.3035 7.60942 12.3682C9.61709 5.69984 13.8751 1.27222 20.9406 0.263494C27.0383 -0.618803 32.6987 0.828377 37.8765 4.1612C42.2465 6.97487 45.6086 10.8026 48.4881 15.085C48.7548 15.5019 49.0374 15.9243 49.32 16.3412C49.3653 16.3762 49.4373 16.3977 49.3307 16.3331Z" fill="white"/>
<path d="M84.9089 44.9864C84.5223 45.683 84.3117 46.1699 84.0131 46.6003C79.6671 52.736 74.356 57.9303 68.4689 62.5435C63.0223 66.7928 57.1799 70.499 51.0237 73.6099C50.5695 73.8748 50.054 74.0143 49.5293 74.0143C49.0046 74.0143 48.4892 73.8748 48.0349 73.6099C36.2395 67.5414 25.6545 59.9101 17.1972 49.5055C16.3547 48.4698 15.5708 47.3831 14.7976 46.2937C14.123 45.3441 14.2404 44.3704 15.0402 43.8189C15.8401 43.2675 16.696 43.4719 17.3625 44.4C25.6065 55.8618 36.6261 63.8966 48.8881 70.3928C49.0683 70.4829 49.265 70.5347 49.4659 70.5449C49.6668 70.555 49.8676 70.5234 50.0559 70.4519C60.5049 64.9941 70.0073 58.2585 77.8327 49.2983C79.2352 47.6844 80.4723 45.9359 81.7894 44.2493C82.2694 43.6387 82.9199 43.2783 83.6185 43.6629C84.1117 43.9292 84.4663 44.521 84.9089 44.9864Z" fill="white"/>
</g>
<defs>
<clipPath id="clip0_80_892">
<rect width="99" height="74" fill="white"/>
</clipPath>
</defs>
</svg>
