<svg width="85" height="100" viewBox="0 0 85 100" fill="none" xmlns="http://www.w3.org/2000/svg">
<g clip-path="url(#clip0_80_911)">
<path d="M65.0079 65.0404C66.2762 64.5174 67.3471 63.9945 68.4933 63.6441C69.0599 63.4583 69.6706 63.4583 70.2372 63.6441C74.7492 65.4483 79.2326 67.3336 83.7342 69.1639C84.5997 69.5169 84.9947 70.0529 84.9895 71.01C84.961 75.089 85.0519 79.1681 84.948 83.2446C84.8882 85.5377 83.8121 87.5773 82.7309 89.5436C79.872 94.7156 75.3678 97.8455 69.9773 99.838C69.4813 99.9642 68.958 99.9256 68.4855 99.7282C64.8182 98.3711 61.5303 96.4022 58.8429 93.5024C58.7387 93.4032 58.6284 93.3106 58.5128 93.2252C56.1532 95.6234 53.2977 97.4696 50.149 98.6326C36.6624 103.535 22.079 94.679 20.1557 80.4154C20.0067 79.2185 19.9355 78.0131 19.9426 76.8069C19.9184 71.4885 19.9184 66.1717 19.9426 60.8567C19.9558 60.571 19.9022 60.2862 19.7862 60.0251C19.6702 59.764 19.495 59.5339 19.2746 59.3532C15.1537 55.5856 12.0278 50.8468 10.1779 45.5628C9.95438 44.9222 9.65809 44.6477 8.97713 44.5509C6.49279 44.2243 4.20924 43.0062 2.54664 41.1205C0.884032 39.2349 -0.0457725 36.8086 -0.0717081 34.2882C-0.0976437 31.7677 0.782037 29.3226 2.40548 27.4027C4.02893 25.4829 6.28692 24.2174 8.764 23.8392C9.48395 23.7189 9.76726 23.4574 10.009 22.7932C14.0687 11.6281 21.7386 4.22824 33.0627 0.808094C37.7748 -0.611737 42.3986 -0.130617 46.5311 2.80841C50.9833 5.98015 52.8494 12.4622 50.8794 17.6003C48.9976 22.5056 43.472 25.7323 38.0165 25.1126C32.8496 24.5268 29.4006 19.7888 30.7391 15.0325C31.5812 12.036 33.6293 10.2004 36.5949 9.49181C39.5604 8.7832 42.1725 9.61732 44.3037 11.8451C44.9872 12.5563 45.0236 13.3539 44.4674 13.9369C43.8645 14.5619 43.0899 14.5148 42.3466 13.7565C40.6364 12.0203 38.6299 11.5366 36.3869 12.4491C34.4532 13.2336 33.2499 14.7109 33.2369 16.8577C33.2369 19.1168 34.1907 20.8871 36.3557 21.8441C39.3083 23.1515 43.5786 22.2546 46.1984 19.7705C50.6558 15.5424 49.533 7.57255 44.0048 4.43742C40.7066 2.56784 37.1926 2.49725 33.6319 3.48825C21.5644 6.81949 12.4391 17.6761 11.1188 30.2271C9.55932 44.849 17.5541 58.2236 31.0303 63.563C49.6786 70.9524 70.6193 58.8355 73.655 38.9003C76.2333 21.9565 65.2912 6.16057 48.6597 2.81625C48.5662 2.79795 48.4674 2.78749 48.3738 2.76395C47.4122 2.52339 46.9392 1.92199 47.0743 1.12448C47.2095 0.32697 47.8852 -0.182914 48.8391 0.0785651C51.4771 0.836854 54.201 1.45133 56.6805 2.58615C65.6317 6.68614 71.6745 13.5447 74.9519 22.8638C75.1547 23.4391 75.3704 23.7241 76.0461 23.8261C78.5348 24.177 80.8128 25.4228 82.4588 27.3331C84.1049 29.2434 85.0074 31.6889 84.9995 34.217C84.9915 36.7451 84.0737 39.1848 82.4157 41.0846C80.7578 42.9845 78.4719 44.2158 75.9812 44.5509C75.3314 44.645 74.9961 44.8804 74.7648 45.5367C72.8918 50.8481 69.7564 55.6183 65.6317 59.4317C65.2747 59.8153 65.0607 60.3114 65.0261 60.8358C64.9533 62.1615 65.0079 63.5003 65.0079 65.0404ZM22.7106 62.1772C22.6846 62.525 22.6664 62.6819 22.6664 62.8387C22.6664 67.765 22.6352 72.6887 22.6898 77.6149C22.7077 78.9508 22.8645 80.2811 23.1577 81.5842C25.4085 91.625 34.4194 98.1567 44.5974 97.1369C47.0195 96.9047 49.3697 96.1806 51.5057 95.0085C51.1107 94.7078 50.8144 94.4725 50.5077 94.2502C45.5071 90.6392 40.4805 87.0621 35.5058 83.4093C31.8334 80.7108 31.849 75.7689 35.4773 73.0077C36.4857 72.2415 37.5305 71.5225 38.5572 70.7799L41.741 68.4736C34.9204 68.3015 28.3014 66.1115 22.7106 62.1772ZM56.4985 77.6175C56.4985 79.1472 56.4414 80.6821 56.5219 82.2117C56.5537 83.1803 56.7199 84.1396 57.0158 85.0618C59.0482 90.9843 63.2873 94.7104 68.9455 96.9722C69.2065 97.0727 69.4943 97.0783 69.759 96.9879C75.3158 94.781 79.5289 91.17 81.6289 85.3887C81.9122 84.6042 82.2111 83.7649 82.2241 82.9465C82.2917 79.3956 82.2397 75.8421 82.2657 72.2886C82.2657 71.7029 82.0656 71.4362 81.5354 71.2218C77.6965 69.6529 73.8733 68.0605 70.0319 66.5151C69.6245 66.3624 69.1771 66.3568 68.7661 66.4994C64.8961 68.0683 61.0469 69.6895 57.1769 71.261C56.6233 71.4858 56.4777 71.7839 56.4881 72.3409C56.5063 74.0954 56.4855 75.8552 56.4855 77.6175H56.4985ZM62.2789 62.2347C61.9748 62.3916 61.8552 62.4387 61.7591 62.4962C57.4855 65.4191 52.6134 67.3378 47.5031 68.1102C47.0618 68.1839 46.6426 68.3564 46.2764 68.6148C43.2875 70.7432 40.3107 72.8865 37.346 75.0446C34.8899 76.8305 34.8951 79.5603 37.3616 81.3462C40.5411 83.6525 43.7258 85.9509 46.9158 88.2414L54.1438 93.471L56.8728 91.0497C56.5011 90.3986 56.1581 89.8469 55.867 89.269C54.9001 87.3498 53.8527 85.4174 53.8033 83.2262C53.7097 79.155 53.8033 75.0786 53.7643 71.0021C53.7643 70.0425 54.1542 69.5117 55.0223 69.1718C57.2185 68.301 59.3991 67.3859 61.5719 66.455C61.8526 66.3347 62.2399 66.034 62.2529 65.7961C62.3049 64.6691 62.2659 63.5369 62.2659 62.2347H62.2789ZM76.0539 26.6919C77.077 31.6488 77.0379 36.7681 75.9396 41.7086C79.4509 41.3007 82.2319 37.9172 82.2319 34.1806C82.2085 30.5147 79.4691 27.1129 76.0306 26.6919H76.0539ZM8.90695 26.718C5.36702 27.0344 2.56783 30.7788 2.77835 34.7533C2.96289 38.2153 6.08696 41.6851 9.03951 41.6433C7.95353 36.7336 7.90042 31.6496 8.88357 26.718H8.90695Z" fill="white"/>
<path d="M41.7229 43.3662C40.1452 43.3427 38.4065 42.2 36.9978 40.4638C36.8787 40.3388 36.7871 40.1901 36.7289 40.0272C36.6707 39.8643 36.6472 39.6909 36.66 39.5183C36.6727 39.3457 36.7214 39.1777 36.8029 39.0253C36.8844 38.8728 36.9968 38.7393 37.1329 38.6334C37.7567 38.0556 38.4325 38.1236 39.038 38.691C39.2278 38.8662 39.3863 39.0754 39.5579 39.2584C41.4084 41.0887 43.511 41.0887 45.3642 39.2584C45.5019 39.1198 45.6241 38.9681 45.7618 38.8322C46.4428 38.1497 47.2225 38.0791 47.8151 38.6439C48.4077 39.2087 48.3843 39.933 47.8151 40.6494C46.4272 42.3517 44.4363 43.3662 41.7229 43.3662Z" fill="white"/>
<path d="M31.389 33.4328C31.389 33.8459 31.0173 34.4238 30.1752 34.5153C29.3331 34.6068 28.8471 34.1336 28.6781 33.3204C28.4364 32.1699 27.9504 31.6129 27.1187 31.6626C26.0947 31.728 25.7048 32.4052 25.5723 33.3518C25.4553 34.1963 24.9017 34.6121 24.07 34.5127C23.2383 34.4134 22.9082 33.8538 22.8874 33.085C22.825 30.9226 24.7977 28.9458 27.0459 28.9014C29.2941 28.8569 31.3968 30.8102 31.389 33.4328Z" fill="white"/>
<path d="M57.7617 28.8909C58.8405 28.8901 59.8795 29.301 60.669 30.0405C61.4586 30.78 61.9401 31.7932 62.0164 32.8758C62.0658 33.7962 61.6369 34.4159 60.8728 34.5257C60.1087 34.6356 59.4823 34.178 59.3394 33.2654C59.1964 32.3528 58.7858 31.7331 57.8241 31.6625C57.0054 31.605 56.5246 32.1489 56.2647 33.3046C56.0905 34.1074 55.6201 34.612 54.7728 34.5179C53.9255 34.4238 53.559 33.8773 53.5538 33.0379C53.5486 30.8493 55.5031 28.9196 57.7617 28.8909Z" fill="white"/>
<path d="M73.3769 85.7049C73.3769 86.9835 73.3769 88.1497 73.3769 89.3159C73.3769 90.7384 72.9325 91.175 71.5056 91.1855C70.0163 91.1855 68.5245 91.2038 67.0352 91.1855C65.8293 91.1646 65.4108 90.7279 65.3952 89.512C65.3796 88.2962 65.3952 87.1038 65.3952 85.7127H62.0814C60.2282 85.7127 59.9294 85.4094 59.9268 83.5582C59.9268 82.2874 59.9268 81.0166 59.9268 79.7458C59.9268 78.0096 60.2932 77.654 62.058 77.654C63.0612 77.654 64.0671 77.654 65.0703 77.633C65.1798 77.6074 65.2861 77.5697 65.3874 77.5206C65.3874 76.3779 65.3874 75.1804 65.3874 73.9854C65.3874 72.6231 65.8344 72.1891 67.2067 72.176C68.6648 72.176 70.1229 72.1629 71.581 72.176C72.8805 72.1891 73.3484 72.6519 73.3666 73.9462C73.3848 75.1412 73.3666 76.3387 73.3666 77.6513C74.6271 77.6513 75.7811 77.6513 76.9377 77.6513C78.3568 77.667 78.809 78.1142 78.8194 79.5288C78.8194 81.0297 78.8376 82.5279 78.8194 84.0262C78.8012 85.2055 78.3308 85.6788 77.1534 85.7049C75.9318 85.7258 74.7077 85.7049 73.3769 85.7049ZM70.6401 88.372C70.6401 87.1221 70.6401 85.9245 70.6401 84.727C70.6401 83.4039 71.082 82.9646 72.3893 82.9489C73.5823 82.9358 74.7726 82.9489 76.0904 82.9489C76.0904 82.3004 76.054 81.7539 76.0904 81.2127C76.145 80.5485 75.8591 80.3681 75.2431 80.3943C74.2398 80.4335 73.234 80.4178 72.2282 80.3943C71.082 80.3733 70.6687 79.9419 70.6349 78.7809C70.6141 77.735 70.6089 76.6891 70.6349 75.6432C70.6349 75.0967 70.4582 74.8587 69.9072 74.9032C69.3562 74.9477 68.7636 74.9032 68.1112 74.9032C68.1112 76.2106 68.1112 77.3794 68.1112 78.5508C68.1112 79.9288 67.6642 80.3681 66.3075 80.3812C65.1197 80.3812 63.9293 80.3812 62.713 80.3812V82.9254C63.9267 82.9254 65.0833 82.9254 66.2425 82.9254C67.6616 82.9254 68.0982 83.3751 68.1112 84.8054C68.1112 85.969 68.1112 87.1326 68.1112 88.3484L70.6401 88.372Z" fill="white"/>
<path d="M42.5052 78.0777C42.5083 78.7039 42.264 79.3057 41.8261 79.7507C41.3882 80.1957 40.7924 80.4475 40.17 80.4506C39.5475 80.4537 38.9493 80.208 38.507 79.7674C38.0647 79.3268 37.8144 78.7274 37.8113 78.1012C37.8098 77.7911 37.869 77.4838 37.9855 77.1967C38.102 76.9097 38.2736 76.6485 38.4905 76.4282C38.7073 76.2078 38.9652 76.0326 39.2493 75.9125C39.5335 75.7924 39.8384 75.7298 40.1466 75.7283C40.4548 75.7268 40.7603 75.7863 41.0456 75.9035C41.3309 76.0208 41.5905 76.1934 41.8096 76.4115C42.0286 76.6297 42.2027 76.8891 42.3221 77.175C42.4415 77.4609 42.5037 77.7676 42.5052 78.0777Z" fill="white"/>
</g>
<defs>
<clipPath id="clip0_80_911">
<rect width="85" height="100" fill="white"/>
</clipPath>
</defs>
</svg>
