<svg width="80" height="73" viewBox="0 0 80 73" fill="none" xmlns="http://www.w3.org/2000/svg">
<g clip-path="url(#clip0_1192_919)">
<path d="M66.4255 70.3886H78.0585C78.3263 70.371 78.5953 70.3776 78.862 70.4082C79.5578 70.5366 79.9757 70.974 79.9757 71.6921C79.9757 72.4102 79.5449 72.8432 78.8577 72.9738C78.6175 73.0022 78.3752 73.0087 78.1339 72.9934H1.85208C1.66466 72.9934 1.47509 72.9934 1.28767 72.9934C0.52291 72.9325 -0.00488071 72.4015 0.00804475 71.6877C0.00565712 71.5164 0.0375933 71.3464 0.101925 71.1878C0.166256 71.0293 0.261656 70.8855 0.382395 70.7652C0.503133 70.6449 0.646708 70.5504 0.8045 70.4876C0.962291 70.4247 1.13104 70.3948 1.30059 70.3995C2.37771 70.3668 3.45484 70.3995 4.53196 70.3995H10.3807C10.1804 70.1275 10.0533 69.9425 9.91325 69.7706C8.74135 68.3148 8.14032 66.6239 7.91197 64.7873C7.85165 64.2911 7.79779 63.9168 7.21184 63.684C6.85854 63.536 6.49447 62.8897 6.49878 62.4741C6.57634 56.6747 7.43804 51.0168 9.75816 45.6614C10.5401 43.8596 11.5656 42.2035 13.1058 40.9392C13.9137 40.2864 14.644 40.2603 15.1718 40.8739C15.6996 41.4876 15.566 42.2558 14.7409 42.9565C13.2696 44.199 12.4359 45.8703 11.7401 47.6156C10.0339 51.8916 9.32946 56.3788 9.08388 60.9529C9.08951 61.0458 9.1054 61.1378 9.13126 61.2271H14.1765C14.2347 59.6451 14.3058 58.0565 14.351 56.4658C14.5544 48.7805 15.6925 41.1497 17.7396 33.745C18.0022 32.8071 18.3854 31.9079 18.8792 31.0705C19.8529 29.4232 21.3674 28.6594 23.2674 28.6768C24.2602 28.6786 25.2389 28.9131 26.1267 29.3618C27.0145 29.8106 27.7871 30.4613 28.3837 31.2629C28.9803 32.0644 29.3846 32.9949 29.5648 33.9811C29.745 34.9672 29.6961 35.9822 29.4221 36.946C29.1864 37.7207 28.7765 38.4298 28.2243 39.0177C27.3799 39.9143 27.061 40.887 27.0675 42.1013C27.0998 48.2923 27.0567 54.4834 27.0912 60.6744C27.1127 64.1018 26.9964 67.4683 24.5944 70.3538H29.6698C29.7732 69.751 29.8573 69.1395 29.9822 68.5389C30.482 66.1452 31.8585 64.5131 34.1593 63.6862C36.684 62.7787 39.3295 62.7243 41.9512 62.6177C43.7758 62.5459 45.6134 62.5785 47.4337 62.5764C48.4311 62.5764 49.03 63.0986 49.0085 63.9103C48.9869 64.722 48.4096 65.1529 47.4488 65.1833C44.2174 65.2813 41.0055 65.3705 37.7849 65.5098C37.0614 65.5624 36.3456 65.6937 35.65 65.9014C33.4419 66.4977 32.4596 67.8317 32.3497 70.3951H61.5225C63.6207 70.3951 64.2864 69.8185 64.4458 67.7142C64.5255 66.6761 64.4609 65.6294 64.4609 64.45C60.5358 66.0494 56.7508 65.7295 52.9486 65.2051C52.1795 65.1006 51.7508 64.7176 51.572 63.956C51.195 62.3457 50.7728 60.7484 50.3829 59.1424C50.1782 58.2916 50.5488 57.5996 51.2812 57.4015C52.0137 57.2035 52.6556 57.6561 52.8797 58.507C53.2049 59.7387 53.4872 60.9812 53.8254 62.2064C53.8814 62.4131 54.1033 62.7026 54.2799 62.7287C56.7638 63.079 59.2519 63.2466 61.7271 62.6416C61.9879 62.5772 62.2453 62.4995 62.4984 62.4088C64.3295 61.7429 64.5212 61.4208 63.8814 59.6147C62.4423 55.5584 60.9365 51.5282 59.5104 47.4676C58.5798 44.8214 56.7444 43.1958 54.1528 42.3842C51.977 41.7009 49.7797 41.0785 47.5953 40.4257C46.6647 40.1449 46.223 39.4246 46.5182 38.6848C46.7853 38.0319 47.3217 37.6598 47.9981 37.8687C50.8934 38.7609 53.8146 39.6096 56.6453 40.6694C57.7292 41.0618 58.7144 41.6902 59.5311 42.51C60.3479 43.3298 60.9762 44.321 61.3717 45.4133C63.2803 50.5359 65.1179 55.6846 66.9727 60.8246C67.0503 61.0422 67.1257 61.3795 67.0201 61.5318C66.2855 62.5937 66.7788 63.6775 66.9189 64.7481C67.1795 66.6326 67.1838 68.5106 66.4255 70.3886ZM10.3786 63.8603C10.6392 66.6435 11.6453 68.7892 14.3101 69.7858C15.8342 70.3392 17.4664 70.5204 19.0731 70.3146C21.6776 70.0165 23.3816 68.5476 24.0279 65.9972C24.3243 64.8163 24.477 63.6032 24.4824 62.3849C24.5255 55.5997 24.5169 48.8146 24.4953 42.0295C24.4953 40.2059 24.9262 38.5977 26.2898 37.3312C27.0352 36.6392 27.1515 35.7361 27.0675 34.7852C26.9189 32.9202 25.5595 31.5623 23.6013 31.3034C22.1084 31.1032 21.0636 31.9149 20.4044 33.7863C20.3786 33.8647 20.342 33.9387 20.3226 34.017C19.6181 37.0483 18.7801 40.0557 18.2416 43.1175C17.1386 49.4087 16.7896 55.776 16.7616 62.1629C16.7616 63.4359 16.3307 63.8602 15.0576 63.8624C13.5345 63.8733 12.0072 63.8711 10.3872 63.8711L10.3786 63.8603Z" fill="white"/>
<path d="M76.1187 3.91486C76.6206 3.91486 77.0429 3.89963 77.4651 3.91486C78.1319 3.92563 78.7681 4.19932 79.2378 4.67747C79.7075 5.15563 79.9736 5.80035 79.9791 6.47397C80.0121 8.23952 80.0121 10.0036 79.9791 11.7663C79.9533 13.2286 78.8524 14.2906 77.394 14.3341C76.9976 14.3472 76.5991 14.3341 76.123 14.3341C76.123 14.7236 76.123 15.0435 76.123 15.3612C76.1101 17.1913 75.0803 18.2424 73.2708 18.2446C66.9847 18.2446 60.6979 18.2446 54.4104 18.2446C53.0941 18.2446 51.7779 18.2446 50.4595 18.2446C48.8115 18.2272 47.7451 17.1565 47.743 15.4744C47.7315 11.2397 47.7315 7.00567 47.743 2.7724C47.743 1.07068 48.8201 0.00219727 50.5435 0.00219727C58.1193 0.00219727 65.6957 0.00219727 73.2729 0.00219727C75.0847 0.00219727 76.1144 1.05108 76.1273 2.88337C76.1187 3.20109 76.1187 3.51881 76.1187 3.91486ZM50.3496 15.5875H73.5336C73.5013 14.4494 73.4367 13.3614 74.2876 12.4888C75.1385 11.6161 76.291 11.7554 77.3574 11.7162V6.54578C76.2803 6.49355 75.1816 6.63718 74.3091 5.78414C73.4367 4.9311 73.5422 3.77123 73.5056 2.65488H50.3453L50.3496 15.5875Z" fill="white"/>
<path d="M42.913 29.1752C44.365 25.8022 44.0979 22.4292 42.1785 20.0159C40.4357 21.2562 38.6412 20.8341 36.7584 20.2335C31.5516 18.547 26.0432 20.2117 22.9152 24.3529C22.5012 24.9472 22.1679 25.5949 21.9243 26.2787C21.6033 27.0861 20.9699 27.5104 20.2526 27.2754C19.5352 27.0404 19.1754 26.3614 19.462 25.5062C20.1362 23.452 21.5128 21.896 23.1005 20.5251C27.3766 16.8257 32.2668 16.1032 37.5167 17.7592C39.1194 18.2641 40.4615 18.3598 41.7842 17.2326C42.3142 16.7843 42.9195 16.8692 43.4042 17.3131C43.8308 17.6842 44.1991 18.1186 44.4964 18.6014C46.3297 21.7568 47.0212 25.0862 45.8579 28.6637C45.7755 28.978 45.6741 29.2869 45.5542 29.5886C45.2073 30.335 45.2396 30.9139 45.733 31.6994C46.9932 33.7124 46.4525 35.7361 45.1944 37.551C44.7462 38.213 44.4449 38.9649 44.3112 39.7554C43.8458 42.123 42.9798 44.3253 41.4869 46.2468C38.5852 49.9853 32.5016 50.7209 28.848 47.7701C28.5714 47.5716 28.3831 47.2711 28.3238 46.9336C28.2646 46.5961 28.3391 46.2485 28.5313 45.9661C28.9277 45.3916 29.6494 45.2284 30.3172 45.6527C31.5054 46.4063 32.863 46.8442 34.2638 46.9257C36.7476 47.0911 38.6369 46.0553 39.979 43.9706C41.0863 42.258 41.6507 40.3408 41.9178 38.3322C41.9832 37.6605 42.2638 37.0286 42.717 36.5326C43.1577 36.0286 43.4861 35.4349 43.68 34.7917C44.0957 33.4077 43.68 32.7614 42.3314 32.2413C41.9587 32.0977 41.6464 31.7582 41.3469 31.4644C40.636 30.7724 40.0113 29.9738 39.2379 29.3645C38.2017 28.5441 37.004 28.4266 35.8471 29.1469C33.4215 30.6484 30.8342 30.5309 28.1996 29.9912C27.3874 29.8236 26.9673 29.1926 27.1224 28.4549C27.2775 27.7171 27.857 27.3211 28.6929 27.4234C29.6235 27.5365 30.5628 27.7585 31.4934 27.7063C32.3788 27.6562 33.3525 27.5017 34.1065 27.0708C37.4951 25.1297 40.1255 26.3658 42.1935 28.4461C42.4111 28.6485 42.6308 28.8836 42.913 29.1752Z" fill="white"/>
<path d="M55.4697 9.18748C55.4697 9.97524 55.4826 10.763 55.4697 11.5486C55.4546 12.4517 54.957 13.0174 54.2008 13.0283C53.4447 13.0392 52.9083 12.4734 52.8975 11.5877C52.8831 9.9571 52.8831 8.32792 52.8975 6.70018C52.8975 5.79927 53.4059 5.23348 54.1642 5.22043C54.9225 5.20737 55.4567 5.79492 55.4697 6.74371C55.4804 7.55758 55.4697 8.37362 55.4697 9.18748Z" fill="white"/>
</g>
<defs>
<clipPath id="clip0_1192_919">
<rect width="80" height="73" fill="white"/>
</clipPath>
</defs>
</svg>
