<svg width="72" height="71" viewBox="0 0 72 71" fill="none" xmlns="http://www.w3.org/2000/svg">
<g clip-path="url(#clip0_1192_924)">
<path d="M0.0011995 27.2827C0.126359 26.8163 0.225979 26.3424 0.379236 25.8836C0.691075 24.8716 1.22551 23.9402 1.94435 23.1557C2.66319 22.3713 3.5487 21.7532 4.5376 21.3457C4.72015 21.283 4.88196 21.1724 5.0057 21.0259C5.12944 20.8793 5.21044 20.7023 5.24003 20.5138C6.6371 14.669 9.99291 9.46116 14.7636 5.73412C19.5344 2.00708 25.4405 -0.020752 31.5248 -0.020752C37.6092 -0.020752 43.5153 2.00708 48.286 5.73412C53.0567 9.46116 56.4126 14.669 57.8096 20.5138C57.8429 20.7011 57.9249 20.8767 58.0476 21.0234C58.1703 21.1701 58.3294 21.2829 58.5095 21.3507C61.3064 22.6466 62.7751 24.8525 62.9795 27.8827C63.0229 28.5054 62.8262 29.113 62.2132 29.3122C61.756 29.4609 61.0995 29.476 60.7164 29.2466C60.3333 29.0172 60.111 28.4374 60.06 27.9861C59.7637 25.2861 57.8301 23.4936 55.2068 23.66C54.5354 23.7351 53.8826 23.9263 53.2783 24.2247C52.3077 24.6533 51.5082 24.5298 51.0766 23.7659C50.6449 23.002 50.931 22.1474 51.8863 21.6457C52.3412 21.4087 52.8154 21.2097 53.3039 21.0507C53.7662 20.897 54.2541 20.8188 54.7266 20.7104C54.5989 14.7204 45.406 5.23626 38.5325 3.9707C38.7879 4.9413 39.1404 5.90939 39.2988 6.90772C40.0421 11.9069 35.0178 16.4625 30.0829 15.3028C28.8117 14.9882 27.6799 14.2716 26.8602 13.2623C26.0406 12.253 25.5783 11.0066 25.544 9.71362C25.519 9.32787 25.6471 8.94768 25.9013 8.65356C26.1554 8.35945 26.5155 8.17453 26.9054 8.13797C27.7202 8.06738 28.3562 8.64218 28.4916 9.55732C28.7471 11.38 29.7253 12.4363 31.24 12.5574C32.4205 12.6191 33.584 12.2587 34.5171 11.5424C35.4503 10.8261 36.0905 9.80179 36.3205 8.65732C36.862 5.58669 34.6883 3.01523 31.5057 2.94716C21.6462 2.76313 11.3831 9.34303 8.31282 20.3827C8.29211 20.4883 8.2793 20.5953 8.27451 20.7028C8.89775 20.8743 9.52611 21.018 10.1366 21.2222C10.5327 21.365 10.9142 21.5449 11.2758 21.7591C12.0855 22.2205 12.3435 23.0197 11.945 23.776C11.8518 23.9512 11.7229 24.1054 11.5664 24.2291C11.4099 24.3527 11.2292 24.4431 11.0356 24.4945C10.842 24.5458 10.6397 24.5571 10.4415 24.5276C10.2432 24.4981 10.0533 24.4285 9.8837 24.323C8.93329 23.7492 7.80522 23.5327 6.70618 23.713C5.63288 23.8978 4.66346 24.4593 3.97665 25.2941C3.28985 26.1289 2.93196 27.1806 2.96899 28.2553C3.00601 29.33 3.43544 30.3553 4.1781 31.1421C4.92077 31.9289 5.9266 32.4241 7.01014 32.5366C7.86838 32.6374 8.32815 33.0408 8.61167 33.84C11.825 42.835 18.18 48.2343 27.6768 50.0376C28.5018 50.194 29.005 50.6074 29.0944 51.2654C29.1838 51.9234 28.9488 52.4856 28.3281 52.7603C27.9653 52.9138 27.5652 52.9602 27.1762 52.894C17.0817 51.0066 10.1 45.3611 6.23108 35.9576C6.17197 35.7661 6.06456 35.5926 5.91892 35.4532C5.77327 35.3139 5.59417 35.2133 5.39839 35.161C2.54015 34.2685 0.800689 32.3576 0.149348 29.466C0.111034 29.287 0.0497336 29.1155 -0.00390625 28.9416L0.0011995 27.2827Z" fill="white"/>
<path d="M40.3675 71C39.8789 70.6993 39.4144 70.3622 38.978 69.9916C36.2424 67.3268 33.5323 64.6344 30.8043 61.952C30.6715 61.8234 30.5489 61.6999 30.4109 61.5587C29.8158 60.9083 29.8005 60.0814 30.3675 59.5015C30.9346 58.9217 31.8337 58.9041 32.5003 59.5242C32.7374 59.7739 32.956 60.0401 33.1542 60.3209C34.5591 58.9419 35.849 57.6814 37.1619 56.3956L33.9282 53.1788C33.3177 52.5712 32.6996 51.9712 32.0942 51.3586C31.3969 50.6502 31.3586 49.8233 31.9742 49.2031C32.5897 48.5829 33.4684 48.6308 34.1606 49.2863C34.5514 49.6544 34.9269 50.0426 35.3126 50.4056C36.3599 51.3788 37.1491 51.3737 38.1555 50.383C39.6489 48.914 41.1406 47.4426 42.6306 45.9686L51.1415 37.5786C52.8937 35.8517 54.6689 35.5618 56.8937 36.5878C57.0116 36.6186 57.1352 36.6211 57.2542 36.5952C57.3733 36.5694 57.4844 36.5158 57.5782 36.4391C58.4978 35.5819 59.379 34.6744 60.2781 33.8046C61.1057 33.0004 61.9026 32.9853 62.7226 33.7895C63.1849 34.2433 63.5987 34.7424 64.1198 35.3021C64.5693 34.8332 64.886 34.4777 65.236 34.1399C66.6068 32.7785 67.9818 31.4214 69.3611 30.0684C70.0763 29.3701 70.9141 29.3298 71.5425 29.9272C72.1708 30.5247 72.153 31.4096 71.4301 32.1306C69.9129 33.6433 68.3828 35.1433 66.8579 36.6483C66.6791 36.8273 66.5054 37.0114 66.13 37.4046C66.6715 37.8458 67.2232 38.2391 67.7008 38.703C68.4901 39.4593 68.4671 40.2736 67.6881 41.0601C66.8026 41.9492 65.9077 42.8324 65.0035 43.7098C64.7711 43.9341 64.6408 44.103 64.8298 44.4661C65.895 46.5258 65.5808 48.3737 63.9129 50.0123C59.591 54.283 55.2666 58.552 50.9397 62.8192C49.8413 63.9033 49.8362 64.6545 50.9167 65.7764C51.1721 66.0436 51.448 66.3008 51.7085 66.568C52.3956 67.2739 52.4441 68.1109 51.8362 68.726C51.2283 69.3412 50.3266 69.3084 49.6012 68.6C48.0865 67.1176 46.5846 65.6251 45.0751 64.1403C44.9601 64.0268 44.8196 63.9285 44.766 63.8705L40.9678 67.6016C41.2845 68.1638 41.8183 68.7538 41.9512 69.4218C42.1198 70.2689 41.4046 70.7126 40.6485 70.9748L40.3675 71ZM47.5195 62.2394C48.4441 61.2814 49.4071 60.2503 50.4084 59.257C54.1274 55.5712 57.8541 51.8914 61.5885 48.2174C61.7545 48.0535 61.9282 47.8972 62.0789 47.7132C62.6459 47.0678 62.6689 46.2535 62.0636 45.6484C59.9401 43.5257 57.803 41.4164 55.6523 39.3206C55.1185 38.8013 54.3113 38.6904 53.7954 39.1668C52.812 40.0769 51.9231 41.0803 50.9856 42.056C50.9944 42.0832 51.0093 42.1082 51.0291 42.1291C51.6242 42.7215 52.2245 43.3064 52.8171 43.8938C53.5834 44.6677 53.6395 45.5199 52.9805 46.1476C52.3215 46.7753 51.4863 46.6921 50.7481 45.9636C50.1044 45.3283 49.4863 44.6678 48.9601 44.1156L44.9346 48.1191C45.5527 48.7065 46.2628 49.3468 46.9295 50.0275C47.5961 50.7082 47.5476 51.6031 46.8809 52.1729C46.2704 52.6922 45.4556 52.6494 44.7992 52.0216C44.1427 51.3939 43.4531 50.6829 42.789 50.0174L38.8682 53.6729L47.5195 62.2394ZM39.4607 58.7729L35.6932 62.3755L38.697 65.3428L42.4033 61.6974L39.4607 58.7729ZM62.5361 41.8215L64.5259 39.8601L61.4914 36.8803L59.5042 38.8391L62.5361 41.8215Z" fill="white"/>
<path d="M31.519 36.1821C28.8727 36.119 26.7425 35.0879 25.1333 33.0308C24.5228 32.2467 24.6045 31.3341 25.3019 30.8223C25.9992 30.3106 26.8216 30.4744 27.45 31.2383C29.6927 33.9635 33.3044 33.9635 35.5343 31.2383C36.155 30.482 36.9953 30.3181 37.685 30.8249C38.3746 31.3316 38.464 32.2366 37.8459 33.0333C36.2546 35.0955 34.1192 36.114 31.519 36.1821Z" fill="white"/>
<path d="M17.3013 25.0993C17.3013 24.6607 17.2834 24.222 17.3013 23.7859C17.3009 23.4123 17.4464 23.0529 17.7076 22.7824C17.9687 22.512 18.3255 22.3513 18.7036 22.3338C19.0717 22.3171 19.4323 22.4403 19.7112 22.6781C19.9901 22.9158 20.1661 23.25 20.2029 23.6119C20.2719 24.6486 20.2719 25.6887 20.2029 26.7254C20.1623 27.0882 19.9789 27.4208 19.6923 27.6514C19.4056 27.882 19.0386 27.9922 18.6704 27.9582C18.304 27.9414 17.9581 27.7863 17.7042 27.525C17.4504 27.2636 17.308 26.916 17.3064 26.554C17.2706 26.0699 17.3013 25.5859 17.3013 25.0993Z" fill="white"/>
<path d="M45.7074 25.1626C45.7074 25.6265 45.7252 26.0878 45.7074 26.5492C45.7014 26.9226 45.5481 27.2791 45.28 27.5427C45.012 27.8064 44.6503 27.9564 44.2719 27.9609C43.9042 27.9731 43.5459 27.845 43.2714 27.6032C42.9969 27.3614 42.8274 27.0246 42.798 26.6626C42.7444 25.6482 42.7444 24.6316 42.798 23.6172C42.8382 23.2574 43.0144 22.9259 43.2915 22.6889C43.5686 22.4518 43.9261 22.3266 44.2926 22.3384C44.6591 22.3502 45.0076 22.498 45.2685 22.7524C45.5293 23.0068 45.6833 23.3489 45.6997 23.7105C45.7278 24.192 45.7048 24.6786 45.7074 25.1626Z" fill="white"/>
</g>
<defs>
<clipPath id="clip0_1192_924">
<rect width="72" height="71" fill="white"/>
</clipPath>
</defs>
</svg>
