<svg width="84" height="84" viewBox="0 0 84 84" fill="none" xmlns="http://www.w3.org/2000/svg">
<g clip-path="url(#clip0_80_906)">
<path d="M37.4003 83.9999C35.697 83.6342 33.9448 83.4128 32.2982 82.8772C22.9107 79.8231 16.8577 71.4102 16.7856 61.4111C16.7701 59.2789 16.7701 57.1467 16.7856 55.0145C16.7765 54.5668 16.6084 54.1369 16.3114 53.8016C15.8715 53.2 15.5721 52.5075 15.4353 51.775C15.2884 50.9304 15.3992 50.0394 15.3992 49.03C14.9534 49.03 14.5566 49.03 14.1623 49.03C11.5417 48.9733 9.82293 47.2274 9.80489 44.6162C9.79201 42.8935 9.78428 41.1707 9.80489 39.4506C9.82111 39.2386 9.77785 39.0263 9.67998 38.8375C9.58211 38.6487 9.43351 38.4909 9.25087 38.3819C2.29339 33.3784 -0.961167 26.575 0.231912 18.0978C1.43788 9.65914 6.37511 3.89347 14.4355 1.10978C27.0234 -3.22412 40.5544 5.54669 41.8377 18.8317C42.6107 26.9639 39.4798 33.43 32.9037 38.2403C32.3884 38.6136 32.1307 38.9613 32.159 39.6231C32.2106 41.2609 32.1848 42.9012 32.1745 44.5415C32.1564 47.2583 30.4403 48.9785 27.7114 49.0222C27.3635 49.0222 27.0156 49.0222 26.5802 49.0222C26.5802 49.8694 26.5544 50.6291 26.5802 51.3836C26.624 52.4342 26.3225 53.3175 25.5005 54.0051C25.3371 54.1376 25.2325 54.3291 25.2093 54.5381C25.2531 57.6488 25.0263 60.8008 25.4412 63.8652C26.3431 70.5167 32.0817 75.4377 38.8253 75.5819C43.2558 75.678 47.6862 75.678 52.1167 75.5819C55.7681 75.5017 59.2427 73.9952 61.7957 71.3852C64.3487 68.7752 65.7769 65.2695 65.774 61.6196C65.792 58.9158 65.792 56.2119 65.7559 53.5029C65.729 53.1169 65.5676 52.7524 65.2998 52.4729C64.9924 52.1615 64.7523 51.7903 64.5945 51.3823C64.4367 50.9743 64.3645 50.5382 64.3825 50.1012C64.3825 47.969 64.3979 45.8368 64.3825 43.7046C64.3864 43.5502 64.3597 43.3966 64.304 43.2525C64.2483 43.1084 64.1646 42.9768 64.0578 42.8652C60.628 40.3724 58.6232 36.9038 57.4173 32.9639C55.0981 25.339 55.4769 17.8686 59.0767 10.6737C60.2149 8.35391 61.894 6.34122 63.9727 4.80506C64.0953 4.69319 64.1945 4.55829 64.2648 4.40805C64.3351 4.25782 64.3751 4.09521 64.3825 3.92953C64.4778 0.720945 65.189 0.0205094 68.4152 0.0205094C69.8377 0.0205094 71.2498 0.0205094 72.6825 0.0205094C74.3935 0.0385351 75.6484 1.18961 75.5737 2.89949C75.5196 4.09434 75.9448 4.77416 76.8621 5.52609C79.9775 8.1012 81.7581 11.5802 82.8069 15.4094C83.3223 17.2686 83.5233 19.2102 83.8711 21.1132C83.9046 21.2986 83.9613 21.4815 84.0077 21.6643V25.9287C83.9639 26.0832 83.9098 26.2377 83.8789 26.3973C83.531 28.3287 83.3377 30.3012 82.8095 32.181C81.619 36.4171 79.591 40.1639 75.9422 42.8677C75.7336 43.0947 75.6218 43.394 75.6304 43.7021C75.6046 45.8343 75.6124 47.9639 75.6304 50.096C75.6417 50.5332 75.5655 50.9682 75.4062 51.3755C75.2469 51.7828 75.0077 52.1541 74.7027 52.4677C74.4215 52.7664 74.2522 53.153 74.2234 53.5621C74.1796 56.3742 74.2234 59.1887 74.1848 62.0033C74.1143 66.6387 72.5969 71.1363 69.8444 74.868C67.0919 78.5997 63.2418 81.379 58.8319 82.8179C57.157 83.3613 55.3841 83.5905 53.6576 83.9793L37.4003 83.9999ZM39.2041 21.0978C39.2183 17.4997 38.1648 13.9782 36.1766 10.9784C34.1884 7.97858 31.3549 5.63518 28.0342 4.2444C24.7135 2.85362 21.0548 2.47792 17.5205 3.16478C13.9862 3.85163 10.735 5.57021 8.17787 8.10326C5.62077 10.6363 3.87258 13.8701 3.15429 17.3959C2.436 20.9217 2.77986 24.5811 4.14239 27.9116C5.50493 31.2421 7.82497 34.0942 10.8092 36.1073C13.7935 38.1203 17.308 39.204 20.9085 39.2214C25.737 39.2337 30.3735 37.3333 33.8027 33.9364C37.2319 30.5395 39.1741 25.9229 39.2041 21.0978ZM67.2196 2.86858C67.1987 3.2202 67.1987 3.57275 67.2196 3.92437C67.4077 5.39476 67.0418 6.56386 65.5524 7.18188C65.3349 7.29749 65.1368 7.44603 64.9648 7.62223C63.3635 8.99671 62.0911 10.7127 61.2413 12.6437H62.2488C63.4522 12.6437 64.6556 12.6282 65.8564 12.6591C66.6295 12.6797 67.0598 13.1355 67.1706 13.8772C67.2207 14.2058 67.1448 14.5412 66.9579 14.8163C66.7711 15.0913 66.4872 15.2857 66.1631 15.3604C65.8695 15.4237 65.569 15.4497 65.2689 15.4377C63.5501 15.4377 61.8314 15.4377 60.0791 15.4377C59.3422 17.699 58.9343 20.0544 58.868 22.4317C60.695 22.4317 62.4138 22.4317 64.1325 22.4317C65.1916 22.4317 65.7946 22.9699 65.7868 23.83C65.7791 24.69 65.1632 25.2076 64.1093 25.2257C63.125 25.2411 62.1406 25.2257 61.1563 25.2257H58.6309C59.0845 27.5175 59.4865 29.6265 59.9477 31.7201C59.9915 31.9209 60.3909 32.1682 60.6332 32.1759C62.1355 32.2171 63.6403 32.1965 65.1426 32.1965C66.529 32.1965 67.2101 32.678 67.1861 33.6411C67.1655 34.563 66.5212 34.9956 65.1581 34.9956H61.2104C62.4112 37.4394 63.8594 39.4609 66.0806 40.7973C66.4572 40.9882 66.7673 41.2881 66.9706 41.658C67.1738 42.0278 67.2606 42.4504 67.2196 42.8703C67.1783 44.0986 67.2196 45.3295 67.2196 46.5578V50.3458H72.8242V49.4033C72.8242 47.1089 72.8242 44.8119 72.8242 42.5175C72.7997 42.2172 72.8625 41.9162 73.0051 41.6508C73.1478 41.3854 73.3641 41.1668 73.6282 41.0214C75.986 39.6514 77.6017 37.5991 78.7278 35.1836C81.753 28.6943 81.99 22.0016 79.8513 15.2317C78.72 11.642 76.8415 8.51579 73.4736 6.49176C73.1334 6.28832 72.917 5.69347 72.8603 5.25313C72.8016 4.45963 72.7921 3.66325 72.8319 2.86858H67.2196ZM19.5995 54.6282C19.5995 57.0926 19.5402 59.4385 19.5995 61.7819C19.9293 72.9681 28.4355 81.1956 39.6344 81.1956C43.7909 81.1956 47.9473 81.2368 52.1012 81.1956C57.1884 81.116 62.0448 79.061 65.6424 75.4659C69.24 71.8707 71.2963 67.0175 71.376 61.9338C71.4121 59.2583 71.376 56.5802 71.376 53.9021C71.376 53.6935 71.3425 53.4823 71.3219 53.2737H68.5801C68.5801 56.2943 68.6188 59.2428 68.5801 62.1913C68.459 69.842 62.5065 76.7948 54.9718 78.0875C53.7607 78.2954 52.5339 78.3997 51.305 78.3991C46.6332 78.3991 41.9433 78.5561 37.2895 78.2291C29.9919 77.7141 23.6116 71.5982 22.6737 64.3493C22.3103 61.5476 22.4752 58.684 22.4005 55.8514C22.4005 55.4755 22.4005 55.0969 22.4005 54.6978C22.1428 54.672 21.9959 54.6411 21.8362 54.6385C21.1198 54.6231 20.4138 54.6257 19.5892 54.6257L19.5995 54.6282ZM29.3657 40.2926C23.7611 42.5922 18.2131 42.5896 12.6162 40.2926C12.6162 41.7501 12.6162 43.0557 12.6162 44.3639C12.6162 45.7827 13.0569 46.2308 14.4716 46.2334C17.0484 46.2334 19.6046 46.2334 22.1712 46.2334C24.0291 46.2334 25.8844 46.2334 27.7423 46.2334C28.6906 46.2334 29.3271 45.8111 29.3554 45.0617C29.3966 43.5063 29.3554 41.9587 29.3554 40.29L29.3657 40.2926ZM18.2544 49.0712V51.7647H23.743V49.0712H18.2544Z" fill="white"/>
<path d="M29.09 11.4103C27.5439 13.7279 26.0467 15.945 24.5986 18.1957C24.4697 18.3965 24.5985 18.8498 24.7248 19.1201C25.1511 19.9481 25.2895 20.8943 25.1184 21.8096C24.9473 22.7249 24.4763 23.5572 23.7796 24.1756C23.083 24.7939 22.2002 25.163 21.2705 25.2248C20.3408 25.2865 19.417 25.0374 18.6446 24.5167C17.8721 23.9959 17.295 23.2332 17.0042 22.3486C16.7133 21.464 16.7253 20.5078 17.0381 19.6307C17.351 18.7536 17.9469 18.0055 18.7321 17.5042C19.5173 17.0029 20.447 16.7769 21.3749 16.8618C21.6506 16.8875 22.0836 16.8206 22.2098 16.6377C23.743 14.4128 25.217 12.1622 26.7554 9.8652C24.728 8.77724 22.4287 8.29962 20.1355 8.4901C13.6212 9.09267 9.03441 13.6403 8.45204 20.1425C8.13251 23.6884 9.3024 26.812 11.6576 29.4824C11.7659 29.606 11.8896 29.7167 11.9978 29.8403C12.6265 30.5562 12.6394 31.3854 12.0287 31.9493C11.418 32.5133 10.6552 32.4643 9.99042 31.7794C8.206 29.99 6.90837 27.775 6.22049 25.3442C5.59828 23.2344 5.43709 21.0157 5.74786 18.8383C6.05863 16.6608 6.8341 14.5756 8.02172 12.7238C9.20934 10.872 10.7814 9.29697 12.6313 8.10534C14.4813 6.91371 16.5659 6.13335 18.744 5.81714C21.7934 5.34772 24.9136 5.82783 27.6805 7.19224C28.0644 7.37507 28.3607 7.46263 28.804 7.2283C29.0126 7.10758 29.2509 7.04777 29.4918 7.05567C29.7328 7.06357 29.9667 7.13886 30.1669 7.27299C30.3672 7.40712 30.5258 7.59469 30.6246 7.8144C30.7235 8.03411 30.7587 8.27714 30.7263 8.51585C30.6619 9.03087 30.8886 9.24975 31.1979 9.52787C37.6838 15.3425 38.1553 25.2849 32.2286 31.5425C32.0516 31.7506 31.85 31.9365 31.6282 32.0961C31.3687 32.2614 31.0613 32.3352 30.755 32.3058C30.4486 32.2763 30.161 32.1453 29.9378 31.9335C29.7146 31.7217 29.5688 31.4414 29.5235 31.1372C29.4782 30.833 29.536 30.5224 29.6878 30.2549C29.8665 29.9808 30.0767 29.7284 30.314 29.503C32.5009 27.0839 33.666 23.9127 33.5651 20.6542C33.4643 17.3956 32.1052 14.3026 29.7729 12.0231C29.5822 11.8274 29.3734 11.6678 29.09 11.4103ZM20.9497 22.4086C21.2218 22.4154 21.4898 22.3418 21.7201 22.197C21.9504 22.0522 22.1328 21.8426 22.2443 21.5946C22.3559 21.3465 22.3916 21.0711 22.3471 20.8028C22.3026 20.5346 22.1797 20.2854 21.994 20.0867C21.8083 19.888 21.568 19.7485 21.3032 19.6857C21.0384 19.623 20.761 19.6398 20.5058 19.734C20.2505 19.8283 20.0288 19.9958 19.8685 20.2155C19.7082 20.4352 19.6164 20.6974 19.6046 20.9691C19.5949 21.1527 19.6223 21.3363 19.6853 21.5091C19.7482 21.6819 19.8454 21.8402 19.971 21.9746C20.0965 22.109 20.2479 22.2167 20.4161 22.2912C20.5843 22.3658 20.7658 22.4057 20.9497 22.4086Z" fill="white"/>
</g>
<defs>
<clipPath id="clip0_80_906">
<rect width="84" height="84" fill="white"/>
</clipPath>
</defs>
</svg>
