<svg width="91" height="87" viewBox="0 0 91 87" fill="none" xmlns="http://www.w3.org/2000/svg">
<g clip-path="url(#clip0_80_888)">
<path d="M91.0003 29.4963C89.6311 31.7807 88.2611 34.0658 86.8904 36.3517C85.9786 37.8784 85.4657 38.0068 83.9581 37.0642C83.0345 36.4874 82.1037 35.918 81.0472 35.2637V36.4753C81.0472 49.8372 81.0472 63.1983 81.0472 76.5585C81.0472 81.5626 78.0294 85.5464 73.3805 86.6926C72.6029 86.8833 71.806 86.9801 71.0062 86.981C64.5196 87.0052 58.033 86.9955 51.5369 86.9955C51.3594 87.0065 51.1812 86.9992 51.0051 86.9737C50.2429 86.8186 49.7776 86.3485 49.7752 85.5464C49.7728 84.7443 50.2358 84.2596 51.0003 84.1167C51.2951 84.0827 51.5923 84.0754 51.8883 84.0949C58.1375 84.0949 64.3898 84.0949 70.6453 84.0949C75.2016 84.0949 78.2004 81.0222 78.2027 76.3574C78.2027 62.3606 78.2083 48.3647 78.2194 34.3695C78.2429 34.0926 78.183 33.8149 78.0476 33.5737C77.9122 33.3325 77.7079 33.1392 77.462 33.0197C67.0593 26.5965 56.6638 20.1546 46.2755 13.6942C45.7246 13.3525 45.3257 13.3259 44.7654 13.6773C34.3295 20.17 23.8826 26.6441 13.4246 33.0997C13.2173 33.201 13.045 33.3641 12.9306 33.5675C12.8161 33.7709 12.7648 34.0049 12.7835 34.2387C12.7978 48.3857 12.8033 62.5335 12.8001 76.6821C12.8001 80.9228 15.8867 84.0779 20.0465 84.09C26.3835 84.1094 32.7229 84.09 39.0599 84.09C39.3559 84.0726 39.6528 84.0783 39.9479 84.107C40.7196 84.2306 41.1683 84.7031 41.2182 85.5028C41.231 85.8703 41.1042 86.2286 40.8645 86.5031C40.6248 86.7776 40.2905 86.947 39.9313 86.9761C39.6944 86.9956 39.4565 87.0005 39.219 86.9907H20.3884C14.2152 86.9907 9.95809 82.6288 9.95809 76.3283C9.95809 63.0262 9.95809 49.7249 9.95809 36.4244V35.2807C8.82079 35.981 7.79747 36.6183 6.76702 37.2411C5.61548 37.9414 4.96493 37.779 4.26926 36.6037C2.96972 34.4067 1.67572 32.2055 0.38726 30.0004C-0.270423 28.8711 -0.0994615 28.2071 1.00696 27.5165C15.4649 18.4697 29.9197 9.42281 44.3713 0.375961C45.188 -0.137771 45.86 -0.10868 46.6625 0.388089C61.0872 9.42686 75.5151 18.46 89.9461 27.4874C90.3221 27.7647 90.6755 28.0726 91.0026 28.4083L91.0003 29.4963ZM6.16395 34.1878C6.52484 33.9745 6.80738 33.817 7.0828 33.6474C19.4498 25.985 31.8136 18.3162 44.1742 10.6409C45.1453 10.0375 45.9003 10.0593 46.8572 10.6555C57.1094 17.0464 67.3743 23.4155 77.6519 29.7629L84.8318 34.2023L87.6121 29.4697C87.3438 29.2831 87.1373 29.1231 86.9141 28.985C73.3663 20.51 59.8217 12.0286 46.2802 3.54074C45.7365 3.19906 45.3447 3.15545 44.7749 3.51652C31.2129 12.0222 17.6429 20.5157 4.06507 28.9971C3.84664 29.1328 3.64244 29.2928 3.39552 29.4672L6.16395 34.1878Z" fill="white"/>
<path d="M18.484 45.7827C18.4507 40.6091 19.7637 36.8942 22.5203 33.7222C27.701 27.7488 36.2011 27.3635 41.9208 32.8159C42.9282 33.7478 43.9814 34.627 45.0762 35.45C45.2124 35.5218 45.364 35.558 45.5172 35.5555C45.6705 35.5529 45.8208 35.5117 45.9547 35.4354C47.0494 34.6118 48.1003 33.7293 49.103 32.7916C55.6181 26.4912 65.7232 28.1874 70.3887 36.3732C72.1575 39.4847 72.7345 42.8482 72.4638 46.4007C71.818 54.8821 68.2684 61.7933 61.8744 67.2626C56.8148 71.5881 51.8667 76.0517 46.8688 80.4548C45.741 81.4483 45.2804 81.4532 44.1882 80.4912C38.8579 75.79 33.5038 71.1228 28.202 66.3781C21.8389 60.681 18.7 53.4354 18.484 45.7827ZM45.5012 77.8159L46.5483 76.9071C51.0595 72.9354 55.5042 68.9104 60.0818 65.0065C65.7802 60.1406 68.9807 54 69.617 46.4467C69.9043 43.0226 69.3345 39.8312 67.3923 36.9621C63.3916 31.0517 55.9505 30.1769 50.9763 34.9629C49.5518 36.3272 47.9681 37.5 46.4438 38.7432C45.8716 39.2133 45.2329 39.2569 44.6465 38.7868C43.134 37.5752 41.5883 36.3974 40.1566 35.0913C37.6494 32.8062 34.8311 31.4564 31.4192 31.9677C25.7707 32.8183 21.4637 37.9338 21.3593 43.9193C21.2216 51.6737 23.8713 58.3062 29.4509 63.5937C32.6823 66.6543 36.099 69.5138 39.423 72.4605C41.4388 74.2367 43.4474 76.0057 45.5012 77.8159Z" fill="white"/>
<path d="M39.8147 60.8773C37.9651 60.8773 36.2533 60.8773 34.5343 60.8773C33.1952 60.8773 32.7108 60.3926 32.7061 59.0259C32.7061 56.3684 32.7061 53.7092 32.7061 51.0485C32.7061 49.7957 33.2118 49.2868 34.4251 49.2722C35.3131 49.2722 36.2034 49.2722 37.0914 49.2722H39.8124V48.3902C39.8124 46.7884 39.7981 45.1866 39.8124 43.5848C39.8124 42.5961 40.3442 42.0291 41.2773 42.0218C44.0901 41.9992 46.9028 41.9992 49.7156 42.0218C50.6653 42.0218 51.1663 42.6228 51.1758 43.6866C51.1877 45.4992 51.1758 47.3215 51.1758 49.2601H52.0424C53.5833 49.2601 55.129 49.2601 56.6628 49.2601C57.7217 49.2601 58.2726 49.8054 58.2797 50.8643C58.2955 53.6753 58.2955 56.4863 58.2797 59.2973C58.2797 60.3054 57.7146 60.8482 56.7103 60.8579C54.9082 60.8773 53.1061 60.8579 51.1782 60.8579V65.4306C51.1782 65.7941 51.1782 66.1575 51.1782 66.5186C51.1449 67.5848 50.6249 68.1325 49.5731 68.1398C46.8474 68.1543 44.1225 68.1543 41.3984 68.1398C40.3537 68.1398 39.8219 67.58 39.8124 66.5041C39.8029 64.6551 39.8147 62.8183 39.8147 60.8773ZM55.4472 52.1705C54.1627 52.1705 52.9565 52.1487 51.7504 52.1705C48.4026 52.2407 48.2791 52.139 48.3504 48.744C48.3765 47.4863 48.3504 46.2286 48.3504 44.9685H42.652C42.652 46.7811 42.652 48.5283 42.652 50.2779C42.652 51.6834 42.1772 52.1584 40.7716 52.1656H35.5956V57.9815H40.5816C42.2579 57.9815 42.6496 58.391 42.6496 60.1333C42.6496 61.8118 42.6496 63.492 42.6496 65.1737H48.348C48.348 63.4508 48.348 61.7933 48.348 60.1357C48.348 58.3643 48.7279 57.9839 50.4991 57.9815H55.4472V52.1705Z" fill="white"/>
</g>
<defs>
<clipPath id="clip0_80_888">
<rect width="91" height="87" fill="white"/>
</clipPath>
</defs>
</svg>
