<svg width="68" height="101" viewBox="0 0 68 101" fill="none" xmlns="http://www.w3.org/2000/svg">
<g clip-path="url(#clip0_80_909)">
<path d="M66.3929 50.302C66.0676 49.7437 66.0732 49.4645 66.4126 48.8867C68.4516 45.4951 68.5245 42.0784 66.6257 38.7286C64.7269 35.3789 61.768 33.6761 57.7965 33.6147C56.1586 33.5952 54.616 34.0111 52.6836 35.0105C52.6836 34.9881 52.7088 34.9686 52.7228 34.9463C52.8658 34.7006 52.9724 34.5192 53.0846 34.3433C55.2498 30.9154 56.4334 27.4401 56.7027 23.7191C57.0897 18.3456 55.7631 14.0328 52.6471 10.5267C49.4806 6.96484 43.8599 4.99407 39.2518 8.11491C38.9995 8.30453 38.7027 8.42687 38.3895 8.47035C38.0764 8.51382 37.7573 8.477 37.4624 8.36335C37.1795 8.23379 36.9344 8.03453 36.7504 7.78445C36.5663 7.53436 36.4494 7.24171 36.4107 6.93413C36.1596 5.29607 36.0293 3.64188 36.0208 1.98487C35.9844 0.438415 35.5805 0.0141278 34.1445 0.00854492C32.4616 0.00854492 30.7788 0.00854492 29.096 0.00854492C27.6572 0.00854492 27.1916 0.466354 27.1832 1.87045V2.50411C27.1832 4.07849 27.158 5.70588 27.1832 7.30538C27.2589 10.6886 28.6276 13.4661 31.25 15.5597C32.1016 16.2184 32.9188 16.92 33.6985 17.6616C34.9186 18.8619 35.5356 20.1544 35.5889 21.6115C35.6443 22.9854 35.3415 24.3502 34.7099 25.573C34.0784 26.7959 33.1396 27.8353 31.9848 28.5901C30.9092 29.3086 29.665 29.7376 28.3733 29.8354C27.0817 29.9333 25.7866 29.6966 24.6141 29.1484C22.5326 28.1502 20.1387 28.0128 17.9557 28.766C15.9083 29.5169 14.3096 31.0661 13.3027 33.249C13.0223 33.8436 12.7839 33.9609 12.1107 33.8241C10.6394 33.5187 9.11799 33.5462 7.6588 33.9045C6.19961 34.2629 4.83995 34.943 3.68031 35.8946C2.52067 36.8461 1.59066 38.0449 0.958993 39.4022C0.327325 40.7595 0.0101397 42.2408 0.0308766 43.7365C0.0308766 45.6347 0.622659 47.4743 1.80905 49.3529C-0.465565 52.9566 -0.566534 57.0601 1.52858 60.3428C1.89319 60.9011 1.89599 61.2472 1.52858 61.8446C-0.530073 65.3004 -0.544084 68.8232 1.48933 72.2706C1.85394 72.8959 1.85674 73.27 1.50335 73.8729C-0.6114 77.4711 -0.544084 81.167 1.69968 84.5614C3.94344 87.9558 7.32311 89.5217 11.3955 88.9746C15.5325 88.4163 18.3344 86.038 19.7171 81.9067C19.8281 81.5693 19.9217 81.2264 19.9976 80.8794L20.0901 80.4887H20.9568C21.8374 80.4887 22.6648 80.4887 23.4978 80.5222C23.6302 80.5502 23.7545 80.608 23.8609 80.6912C23.9674 80.7745 24.0533 80.8809 24.112 81.0023C24.5832 83.2288 25.7694 85.2423 27.4917 86.7387C28.1969 87.3688 28.7544 88.1455 29.1247 89.0137C29.495 89.882 29.669 90.8206 29.6345 91.7633C29.6205 94.1109 29.6345 96.5702 29.6345 99.2862C29.6345 100.498 30.1422 100.997 31.3594 101.006C32.1026 101.006 32.8487 101.006 33.6032 101.006H35.774H36.3321C37.8663 101.006 38.3123 100.551 38.3179 98.9959C38.3179 98.1222 38.3179 97.2485 38.3179 96.3775C38.3179 94.7027 38.3179 92.972 38.3403 91.2692C38.3523 89.7749 38.9489 88.344 40.0035 87.2802C43.9301 89.6781 47.6996 89.7199 51.5028 87.403C51.7019 87.283 52.2292 87.4031 52.5209 87.5705C54.4295 88.763 56.6849 89.2838 58.926 89.0494C61.1672 88.8151 63.2646 87.8393 64.8826 86.2782C66.5006 84.717 67.5457 82.6608 67.8505 80.4386C68.1553 78.2163 67.7024 75.9565 66.564 74.0209C66.2527 73.4961 66.2471 73.1835 66.5359 72.6754C68.5217 69.1917 68.474 65.6968 66.3901 62.2466C66.0844 61.7413 66.09 61.4566 66.4098 60.9206C68.4965 57.3811 68.4993 53.8108 66.3929 50.302ZM63.5377 63.0645C65.4421 65.4316 65.6637 68.8902 64.0763 71.1596C62.4518 69.9125 60.4892 69.1784 58.4416 69.0521C56.9242 68.9628 56.5484 69.683 56.5008 70.3027C56.4026 71.4891 57.4263 71.7403 58.206 71.8268C62.0232 72.2511 64.7297 74.7857 65.0999 78.2834C65.2728 79.9462 64.8619 81.6172 63.9369 83.0126C63.012 84.4079 61.6302 85.4414 60.0262 85.9375C57.589 86.6884 55.3115 86.2474 53.2529 84.6284C52.002 83.643 51.6626 83.643 50.4678 84.6088C47.7024 86.842 44.0871 86.8671 41.2572 84.6674C40.0287 83.71 39.6136 83.7267 38.4833 84.793C37.5349 85.6519 36.7792 86.7002 36.2654 87.8696C35.7517 89.0389 35.4915 90.3029 35.5019 91.5791C35.5019 93.1171 35.5019 94.6496 35.5019 96.2073V98.1473H32.4588C32.4588 97.6114 32.4588 97.0782 32.4448 96.5478C32.4448 95.3028 32.414 94.016 32.4729 92.7626C32.6383 89.318 31.4884 86.5126 28.953 84.1817C27.8417 83.1433 27.0986 81.7743 26.8352 80.2801C26.5717 78.7858 26.8021 77.2469 27.4917 75.8939C28.1498 74.5499 29.2105 73.442 30.5277 72.7231C31.8449 72.0041 33.3537 71.7095 34.8462 71.8798C36.3386 72.05 37.7413 72.6768 38.8609 73.6737C39.9805 74.6706 40.7619 75.9886 41.0973 77.446C41.1689 77.7847 41.2167 78.1279 41.2404 78.4732C41.2628 78.7105 41.2852 78.9534 41.3217 79.1934C41.4507 80.0057 41.9892 80.4663 42.7577 80.4217C43.5711 80.377 44.0394 79.8633 44.0759 78.9617C44.1488 77.2003 43.5346 75.3859 42.0313 72.9155C44.0731 71.6761 46.1906 71.4835 48.4821 72.3265C48.7059 72.4003 48.9227 72.4938 49.13 72.6056C49.733 72.9601 50.4454 73.2365 51.1241 72.6056C51.7327 72.0473 51.5504 71.4444 51.3766 70.861C51.3457 70.7577 51.3148 70.6544 51.2868 70.5483C50.9462 69.4025 50.7401 68.2213 50.6726 67.0283C50.6361 65.5377 51.2335 64.1112 52.4283 62.7825C53.1575 61.9758 53.1716 61.2416 52.4676 60.3986C50.2238 57.7328 49.9854 54.8157 51.7159 51.7451C52.0356 51.1869 52.3161 50.4416 51.6374 49.7716C50.9586 49.1017 50.2995 49.3752 49.6573 49.7381C46.6338 51.4409 43.7337 51.2008 41.044 49.0291C40.2307 48.3731 39.5379 48.3675 38.7301 49.0123C35.645 51.4632 32.2793 51.4883 29.211 49.0793C28.3696 48.4178 27.674 48.4289 26.8102 49.1156C24.3448 51.0696 21.6916 51.3655 18.699 50.0117C18.1717 49.7744 17.2405 49.766 16.8703 50.1094C16.5001 50.4527 16.4468 51.3878 16.6599 51.9154C17.894 54.9609 17.5014 57.5932 15.4679 59.9604C14.7892 60.7504 14.8173 61.4622 15.5605 62.3443C17.7482 64.9347 17.9669 68.3263 16.1215 71.0173C14.2984 69.7918 12.5455 69.161 10.7701 69.0884C10.6902 69.0862 10.6106 69.0788 10.5317 69.0661C10.3053 69.0035 10.0635 69.0294 9.85574 69.1386L9.76879 69.2056C9.34528 69.5406 8.8152 69.9537 8.75911 70.4199C8.70301 70.8861 9.32006 71.503 9.766 71.7151C10.1234 71.8533 10.5045 71.9206 10.8879 71.9133C11.1136 71.9198 11.3385 71.9421 11.561 71.9803C13.1063 72.2966 14.506 73.1053 15.5484 74.2838C16.5909 75.4623 17.2193 76.9467 17.3387 78.5124C17.458 80.078 17.0618 81.6398 16.21 82.9614C15.3582 84.283 14.0971 85.2925 12.6175 85.8373C11.1379 86.3821 9.52025 86.4324 8.00932 85.9808C6.49838 85.5291 5.17635 84.6 4.2432 83.334C3.31005 82.0679 2.81655 80.5339 2.83736 78.9639C2.85817 77.3938 3.39215 75.8733 4.35853 74.6322C5.5337 73.136 5.5337 73.0215 4.37536 71.5393C3.37378 70.2631 2.83112 68.6894 2.83417 67.0701C2.83723 65.4507 3.38581 63.8791 4.39218 62.6067C5.51407 61.1635 5.51406 60.996 4.4062 59.5947C2.52425 57.2443 2.30829 53.6517 3.89855 51.4995C5.70198 52.8059 7.52223 53.4814 9.45186 53.5652C10.2933 53.6015 11.4152 53.5094 11.4657 52.2923C11.5133 51.3739 10.9047 50.8798 9.61173 50.7821C7.92404 50.6602 6.33095 49.96 5.10365 48.8006C3.87635 47.6412 3.09069 46.0943 2.88045 44.4232C2.68271 42.7608 3.07367 41.0819 3.98598 39.6756C4.89828 38.2692 6.27481 37.2236 7.87843 36.7188C8.98906 36.3402 10.1772 36.244 11.3347 36.439C12.4923 36.634 13.5824 37.114 14.5059 37.8354C16.0485 38.9827 16.1046 38.9827 17.65 37.9275L17.7874 37.8326C18.5877 37.3039 19.4581 36.8886 20.3734 36.5988C21.7757 36.1382 23.007 36.3671 24.2411 37.3246C28.0527 40.2723 31.8138 42.1482 35.7403 43.061C39.9839 44.0463 43.9637 42.98 48.2633 39.7112C48.3811 39.6219 48.4933 39.5298 48.6111 39.4321L48.4709 40.049C48.2633 40.9674 48.0614 41.8662 47.8679 42.7679C47.8205 43.0199 47.8064 43.2771 47.8258 43.5327C47.8735 44.4288 48.3531 44.9285 49.1777 44.9564C49.9518 44.9787 50.451 44.5321 50.58 43.7002C50.6165 43.4769 50.6445 43.2508 50.6698 43.0247C50.7145 42.5647 50.7923 42.1085 50.9025 41.6597C51.2726 40.2999 52.0362 39.0784 53.0984 38.1473C54.1606 37.2162 55.4745 36.6165 56.8766 36.4229C58.3148 36.2244 59.7799 36.459 61.0829 37.0966C62.3859 37.7343 63.4673 38.7456 64.1876 40.0004C64.9079 41.2552 65.2341 42.696 65.1243 44.137C65.0145 45.578 64.4736 46.9533 63.5714 48.0856C62.4495 49.5036 62.4495 49.6432 63.5714 51.0947C64.6003 52.3748 65.1572 53.9674 65.149 55.6067C65.1408 57.2459 64.5682 58.8329 63.5265 60.1027C62.4635 61.4678 62.4635 61.7134 63.5377 63.0645ZM30.4423 65.6326C30.8474 65.5674 31.2576 65.5394 31.6679 65.5489C32.557 65.5489 33.4489 65.5489 34.338 65.5489C35.9058 65.5489 37.5269 65.5488 39.106 65.5293C42.0369 65.479 44.219 63.3185 44.1853 60.5047C44.1516 57.6909 41.9191 55.5862 38.9966 55.5806C34.7839 55.5806 30.5703 55.5806 26.3558 55.5806H20.2135L20.0761 53.6266C20.4828 53.607 20.8895 53.5987 21.2821 53.5931C22.2738 53.6063 23.2646 53.5259 24.2411 53.353C25.1884 53.1232 26.1109 52.8016 26.9953 52.3928C27.3907 52.2281 27.7946 52.0578 28.2125 51.8987C32.0297 54.2965 35.9619 54.2463 39.9081 51.7451C42.7409 53.4842 44.5976 53.8778 48.0025 53.448C47.4976 56.5744 48.0838 59.2346 49.7919 61.5655C48.168 63.8293 47.5481 66.3109 47.9352 69.1833H47.6828C47.4023 69.1833 47.1695 69.1582 46.9311 69.1303C44.8046 68.8417 42.6436 69.2997 40.8197 70.4255C40.1129 70.8721 39.6753 70.7688 39.019 70.3892C37.5383 69.5034 35.844 69.0336 34.1164 69.0298C33.0277 69.036 31.9464 69.2093 30.9106 69.5434C30.6765 69.6303 30.4264 69.6661 30.1771 69.6482C29.9279 69.6304 29.6855 69.5594 29.4662 69.4401C29.2511 69.2962 29.0698 69.1077 28.9347 68.8875C28.7997 68.6673 28.714 68.4206 28.6837 68.1644C28.6288 67.883 28.6309 67.5934 28.69 67.3128C28.749 67.0321 28.8639 66.7661 29.0277 66.5302C29.1915 66.2944 29.401 66.0935 29.644 65.9393C29.8869 65.7852 30.1583 65.6809 30.4423 65.6326ZM18.5812 60.5159C18.8813 59.9101 19.1645 59.3407 19.4955 58.788C19.5706 58.6802 19.6676 58.5893 19.7801 58.521C19.8927 58.4527 20.0183 58.4087 20.149 58.3916C26.5353 58.3665 32.9188 58.3637 39.1256 58.3916C39.415 58.3812 39.7036 58.428 39.9747 58.5295C40.2457 58.6309 40.4939 58.7849 40.7047 58.9825C40.9155 59.1801 41.0848 59.4174 41.2027 59.6806C41.3207 59.9438 41.3849 60.2277 41.3918 60.5159C41.4042 60.7968 41.3599 61.0774 41.2617 61.3411C41.1634 61.6047 41.0131 61.8462 40.8197 62.0512C40.6031 62.2724 40.344 62.448 40.0577 62.5674C39.7715 62.6868 39.464 62.7476 39.1537 62.7462C36.7192 62.7881 34.2174 62.7937 31.5052 62.7462C28.9501 62.7127 27.2505 63.6702 26.3306 65.6717C25.4106 67.6731 25.7696 69.6299 27.402 71.3913C27.4183 71.418 27.4324 71.446 27.444 71.4751C25.7336 72.9783 24.5701 75.0018 24.1345 77.231C24.0827 77.3399 24.0073 77.4359 23.9137 77.5122C23.8201 77.5885 23.7106 77.6431 23.5932 77.6721C22.7125 77.7139 21.815 77.7084 21.0213 77.7028H20.3201L18.3568 72.9378C20.8979 69.0605 20.881 65.0938 18.2867 61.1439C18.382 60.9346 18.4746 60.7252 18.5756 60.5159H18.5812ZM35.6281 15.6322C34.8456 14.8792 34.0216 14.17 33.16 13.508C31.1967 11.9559 30.1562 10.0131 30.0524 7.73527C29.9991 6.59637 30.0131 5.47698 30.0244 4.2934C30.0244 3.81328 30.0244 3.33037 30.0244 2.84466H32.9973C33.059 3.31921 33.1123 3.79095 33.1656 4.2627C33.2918 5.37928 33.4208 6.49586 33.6592 7.61243C33.8169 8.36658 34.1577 9.07078 34.6521 9.66349C35.1464 10.2562 35.7791 10.7194 36.4948 11.0124C37.1444 11.2774 37.8499 11.3775 38.548 11.3039C39.2461 11.2304 39.9149 10.9854 40.4943 10.5909C44.1404 8.15119 48.3026 9.87071 50.6277 12.5003C53.1519 15.3475 54.2205 18.8368 53.9232 23.1636C53.5193 29.0619 50.9867 33.9302 46.3954 37.6344C42.2949 40.9395 38.0009 41.5731 33.6284 39.5159C31.107 38.3453 28.6762 36.9905 26.3558 35.4627C24.5552 34.2623 22.9369 33.665 21.327 33.665C19.8349 33.665 18.3512 34.1786 16.7329 35.1975C16.2112 35.5269 15.8915 35.5967 15.5184 35.1193C16.1719 33.6147 17.0302 32.1353 18.7999 31.4207C20.2388 30.84 21.6944 30.9182 23.2454 31.6579C25.5957 32.7745 27.9264 33.0536 30.173 32.5177C33.5246 31.6998 35.9395 29.4471 37.5606 25.6535C39.1817 21.86 38.5198 18.5046 35.6225 15.6322H35.6281Z" fill="white"/>
</g>
<defs>
<clipPath id="clip0_80_909">
<rect width="68" height="101" fill="white"/>
</clipPath>
</defs>
</svg>
