<svg width="69" height="82" viewBox="0 0 69 82" fill="none" xmlns="http://www.w3.org/2000/svg">
<g clip-path="url(#clip0_1192_930)">
<path d="M59.7601 0C61.5424 1.70307 63.3246 3.40472 65.1069 5.10495C66.1818 6.13906 67.2516 7.17745 68.3162 8.22011C69.2206 9.1016 69.2272 9.56589 68.3316 10.4345C66.2891 12.4158 64.24 14.3884 62.1291 16.4253C62.3629 16.667 62.557 16.8767 62.7599 17.0778C63.5783 17.893 63.5915 18.3829 62.7732 19.181C61.2292 20.6979 59.6631 22.202 58.1058 23.7125C57.9713 23.8452 57.8412 23.9821 57.6382 24.1896L58.3198 24.7352C60.0469 26.0901 61.2319 27.9875 61.67 30.0998C62.1082 32.212 61.772 34.4063 60.7196 36.3037C60.5809 36.5417 60.4931 36.8044 60.4612 37.076C60.4294 37.3476 60.4543 37.6227 60.5344 37.8848C62.058 44.0826 61.2804 50.6031 58.3383 56.2998C55.3961 61.9966 50.4778 66.5049 44.4479 69.0323C44.1722 69.1478 43.9009 69.2655 43.5656 69.411C43.7136 70.1393 43.8999 70.8598 44.1236 71.5697C44.192 71.758 44.6177 71.927 44.8802 71.9292C47.8249 71.9549 50.7673 71.9292 53.7032 71.9506C58.1676 71.987 61.7674 74.6507 62.8151 78.6923C62.9741 79.3673 63.0628 80.0561 63.0798 80.7484C63.1151 81.555 62.6695 81.9551 61.8203 81.9936C61.6284 81.9936 61.4343 81.9936 61.2424 81.9936H4.36075C2.78144 81.9936 2.48366 81.6812 2.59615 80.1386C2.9204 75.5193 6.90838 72.0084 11.922 71.9484C14.838 71.9185 17.754 71.9313 20.6722 71.9484C21.2501 71.9484 21.5854 71.8522 21.6692 71.2167C21.7663 70.4807 22.2802 69.6442 22.0464 69.0772C21.839 68.568 20.8531 68.354 20.209 68.0074C14.8975 65.2567 10.6565 60.8996 8.13036 55.5981C7.84802 55.0204 7.54363 54.8193 6.89735 54.8364C5.1107 54.8792 3.31964 54.8578 1.53299 54.8364C0.381589 54.8364 0.00441148 54.4534 0 53.3387C0 51.7918 0 50.2428 0 48.6938C0 47.7203 0.397029 47.3031 1.38741 47.3009C8.95457 47.291 16.5217 47.291 24.0889 47.3009C25.1057 47.3009 25.5028 47.6861 25.516 48.6617C25.5351 50.2621 25.5351 51.8632 25.516 53.465C25.5028 54.4449 25.1102 54.8193 24.0977 54.8364C23.0279 54.8557 21.9559 54.8364 20.6347 54.8364C21.8349 56.1987 23.2592 57.3591 24.8499 58.2704C24.9359 58.0265 25.0197 57.8425 25.0705 57.6285C25.4476 56.1501 25.5888 56.0388 27.124 56.0388H38.6821C40.0055 56.0388 40.2393 56.2228 40.557 57.4552C40.6606 57.866 40.7621 58.2746 40.9297 58.9358C42.1892 58.0799 43.4288 57.3782 44.4699 56.4732C49.0557 52.4893 50.8666 47.4871 50.0394 41.5841C50.0064 41.3423 49.8189 40.9786 49.6314 40.9208C47.4321 40.2756 45.5237 38.9253 44.2185 37.0911C43.1311 38.1608 42.101 39.1857 41.0621 40.1998C39.8886 41.3445 39.5181 41.3466 38.3667 40.2148C38.0799 39.9302 37.8351 39.605 37.4954 39.2092C36.3925 40.279 35.4242 41.246 34.4404 42.2046C33.4567 43.1631 33.031 43.1353 32.0979 42.2345C29.8599 40.065 27.6225 37.8948 25.3859 35.7239C24.4859 34.8488 24.4881 34.3995 25.4079 33.5095C26.3961 32.551 27.3931 31.6031 28.496 30.5526C27.9776 30.0819 27.499 29.684 27.0644 29.2454C26.4711 28.6442 26.4557 28.0772 27.0644 27.4888C31.1407 23.5178 35.2264 19.554 39.3217 15.5972C39.8974 15.041 40.5989 15.0495 41.0687 15.5438C41.5385 16.038 41.4988 16.6456 40.8878 17.2404C37.2925 20.7364 33.6934 24.231 30.0907 27.7242C29.8812 27.9274 29.6782 28.1414 29.5459 28.2762L39.8224 38.2614C40.8194 37.29 41.8826 36.2866 42.8973 35.2382C43.045 35.0863 43.0362 34.6991 42.9722 34.453C41.5584 29.1363 44.7765 23.9842 50.2733 22.7989C51.7877 22.4953 53.3545 22.54 54.848 22.9295C55.0074 22.9654 55.1728 22.9679 55.3334 22.9369C55.4939 22.906 55.6457 22.8421 55.7788 22.7497C57.3846 21.2521 58.9506 19.7159 60.6601 18.0599L50.2622 8.16021L44.4104 13.8642C44.2272 14.0631 44.024 14.2437 43.8038 14.4034C43.5954 14.5631 43.3332 14.642 43.0682 14.6246C42.8032 14.6072 42.5544 14.4948 42.3701 14.3092C41.9091 13.8813 41.8782 13.3807 42.2157 12.8608C42.2798 12.7713 42.3538 12.6888 42.4363 12.6147C44.7501 10.3682 47.0683 8.12169 49.3865 5.87946C50.0019 5.28894 50.5644 5.30606 51.1975 5.87946C51.4555 6.11267 51.6739 6.39081 51.9651 6.70532L58.944 0.0149783L59.7601 0ZM60.691 79.7299C60.6094 79.3962 60.5608 79.1373 60.4704 78.8741C59.5418 75.9772 56.9147 74.1843 53.5598 74.1843C39.7475 74.1843 25.9351 74.1843 12.1228 74.1843C11.9286 74.1843 11.7367 74.1843 11.5448 74.1843C8.17668 74.3597 5.33568 76.7517 5.02688 79.7128L60.691 79.7299ZM41.7988 71.9057C40.6783 67.4661 39.5732 63.1335 38.5034 58.7753C38.3799 58.2768 38.0755 58.3153 37.716 58.3153H27.3005C26.1579 62.8618 25.0307 67.3527 23.8882 71.9035L41.7988 71.9057ZM42.9943 67.1987C48.8329 64.8238 53.2047 60.994 56.0942 55.6238C58.8845 50.4375 59.6102 44.9496 58.4411 39.0744C56.6126 40.5571 54.5767 41.1776 52.4481 41.3188C53.2642 50.3412 49.5961 56.8818 41.4768 61.1609L42.9943 67.1987ZM52.2253 24.8486C50.293 24.8682 48.4459 25.6232 47.082 26.9511C45.718 28.2789 44.9464 30.0732 44.9332 31.9476C44.9458 33.8226 45.7171 35.6177 47.0811 36.9463C48.445 38.2749 50.2924 39.0307 52.2253 39.0509C56.2398 39.0637 59.5991 35.7945 59.5594 31.9112C59.5363 30.0362 58.7545 28.2451 57.3826 26.9239C56.0107 25.6028 54.1585 24.8575 52.2253 24.8486ZM10.4155 54.8642C12.4316 59.7338 17.9393 64.8623 22.8052 66.683C23.2617 64.8687 23.6875 63.0565 24.1837 61.2593C24.3227 60.7522 24.2146 60.4976 23.7426 60.2409C21.5262 58.992 19.5868 57.3297 18.0363 55.3499C17.7744 55.0727 17.411 54.906 17.0239 54.8856C15.2924 54.8386 13.5587 54.8642 11.8272 54.8642H10.4155ZM60.5079 14.7329L66.0024 9.42253C63.7614 7.25304 61.5005 5.06001 59.2749 2.90336L53.787 8.21797L60.5079 14.7329ZM23.1823 49.6309H2.37558V52.5471H23.1868L23.1823 49.6309ZM30.1569 32.322L27.6953 34.6755L33.1501 39.9923L35.6492 37.6217L30.3554 32.4761C30.2957 32.4216 30.2332 32.3702 30.1679 32.322H30.1569Z" fill="white"/>
<path d="M3.30078 35.7069C3.34931 34.1086 4.03971 32.4055 4.90877 30.7581C6.79468 27.1786 9.35554 24.0357 11.8039 20.8221C12.3377 20.1203 13.1737 20.0925 13.692 20.775C16.3389 24.2689 19.1204 27.6836 21.0768 31.6353C23.3907 36.3123 21.8731 40.3497 19.0917 42.7331C16.1183 45.2749 12.695 45.8269 9.04012 44.357C5.54402 42.9578 3.30519 39.5987 3.30078 35.7069ZM12.7678 23.3104C11.9804 24.3566 11.2238 25.3322 10.4981 26.3335C8.79749 28.687 7.09245 31.0576 6.06898 33.7962C5.1139 36.3637 5.67416 38.6616 7.52257 40.6192C9.37098 42.5769 11.773 43.2637 14.4993 42.6646C18.1366 41.8645 21.2842 37.718 19.2549 33.2229C17.6293 29.6199 15.1853 26.5346 12.7678 23.3104Z" fill="white"/>
<path d="M52.2269 35.9122C51.6899 35.9139 51.1579 35.8119 50.6619 35.6122C50.1659 35.4124 49.7159 35.1188 49.3382 34.7486C48.9604 34.3784 48.6624 33.9389 48.4615 33.4558C48.2607 32.9727 48.161 32.4556 48.1683 31.9348C48.1668 31.4139 48.2723 30.8979 48.4785 30.4169C48.6847 29.9359 48.9876 29.4996 49.3695 29.1333C49.7514 28.7671 50.2046 28.4783 50.7028 28.2837C51.2009 28.0892 51.734 27.9928 52.271 28.0002C52.8083 27.9978 53.3407 28.0994 53.8371 28.2989C54.3334 28.4985 54.7838 28.792 55.1619 29.1623C55.5399 29.5326 55.8381 29.9723 56.039 30.4557C56.2399 30.9391 56.3394 31.4564 56.3318 31.9776C56.3336 32.4987 56.2283 33.015 56.0221 33.4963C55.8158 33.9775 55.5127 34.4141 55.1306 34.7804C54.7484 35.1467 54.2948 35.4355 53.7962 35.6298C53.2976 35.8241 52.7641 35.9201 52.2269 35.9122ZM54.0136 32.0032C54.0242 31.7775 53.9879 31.5521 53.9066 31.3403C53.8254 31.1286 53.7009 30.9349 53.5407 30.7709C53.3805 30.6069 53.1878 30.4759 52.9742 30.3859C52.7606 30.2958 52.5304 30.2484 52.2975 30.2467C52.0648 30.2357 51.8322 30.2705 51.6137 30.3492C51.3952 30.4278 51.1955 30.5485 51.0264 30.7041C50.8574 30.8596 50.7226 31.0468 50.6302 31.2543C50.5378 31.4617 50.4897 31.6852 50.4888 31.9112C50.4775 32.1368 50.5133 32.3622 50.5943 32.574C50.6752 32.7858 50.7994 32.9794 50.9596 33.1434C51.1197 33.3073 51.3124 33.4381 51.526 33.5278C51.7397 33.6176 51.9698 33.6645 52.2026 33.6656C52.4342 33.6745 52.6653 33.6382 52.8822 33.5589C53.099 33.4795 53.2973 33.3588 53.4651 33.2037C53.633 33.0487 53.767 32.8626 53.8593 32.6564C53.9517 32.4501 54.0003 32.228 54.0025 32.0032H54.0136Z" fill="white"/>
</g>
<defs>
<clipPath id="clip0_1192_930">
<rect width="69" height="82" fill="white"/>
</clipPath>
</defs>
</svg>
