<svg width="72" height="89" viewBox="0 0 72 89" fill="none" xmlns="http://www.w3.org/2000/svg">
<g clip-path="url(#clip0_80_896)">
<path d="M4.66342 67.0128C4.75958 68.7279 4.85573 70.443 4.95188 72.1581C5.22111 77.0207 5.48794 81.8833 5.75236 86.7459C5.75236 86.9256 5.75236 87.1052 5.75236 87.2825C5.73794 88.3245 5.17784 88.9784 4.31006 88.9592C3.44227 88.9401 2.92063 88.3364 2.88217 87.34C2.8365 86.1423 2.81486 84.9446 2.75236 83.7469C2.35333 76.2278 1.81967 68.7136 1.59611 61.1897C1.49515 57.8314 0.723518 54.5976 0.278806 51.2968C-0.155982 48.3643 -0.086887 45.3793 0.483133 42.4699C1.68506 36.7018 5.19467 33.0585 10.8028 31.4368C12.7788 30.8643 14.8365 30.5649 16.8677 30.1984C17.8702 30.0163 18.6153 30.5769 18.7091 31.4416C18.798 32.2632 18.2283 32.8477 17.2524 33.0441C15.2884 33.4369 13.3052 33.7411 11.3822 34.3112C6.30765 35.8251 3.66102 39.387 3.05284 44.5467C2.46631 49.5266 3.48313 54.3006 4.93746 59.0075C6.43426 63.7666 8.40648 68.3639 10.8245 72.7306C10.9351 72.9342 11.0649 73.1306 11.3052 73.5283C11.5889 69.5951 12.9879 66.2487 14.9927 63.1419C16.9976 60.0351 19.3197 57.1918 22.9254 55.5246L20.012 52.2382C19.7331 51.9244 19.4447 51.6202 19.1778 51.2968C18.5552 50.5375 18.5865 49.7015 19.2452 49.141C19.9038 48.5805 20.6875 48.6811 21.3197 49.3805C22.3317 50.4824 23.3125 51.6154 24.3053 52.734C26.7668 55.5127 29.2291 58.2897 31.6923 61.0651C31.8678 61.264 32.0577 61.4508 32.3221 61.7311C32.6538 60.2938 32.8677 58.9261 33.2836 57.623C34.2351 54.6319 34.6811 51.5041 34.6033 48.3673C34.5889 47.3564 34.9086 46.2905 35.3004 45.3395C36.1449 43.2346 37.0956 41.1735 38.149 39.1643C38.8615 37.8913 39.7207 36.7056 40.7091 35.6311C41.8677 34.3328 43.4134 34.1939 45.0192 34.7185C45.4965 34.8683 45.9251 35.1421 46.261 35.5118C46.5968 35.8814 46.8279 36.3335 46.9303 36.8216C47.1827 37.8036 47.3437 38.8067 47.411 39.8182C47.6178 43.4113 47.6827 46.954 46.5288 50.4632C46.0697 51.8597 46.0817 53.4766 46.1706 54.9761C46.5432 61.3262 47.036 67.6716 47.4591 74.0217C47.5538 75.0331 47.5473 76.0513 47.4399 77.0614C47.0432 79.979 45.1322 81.6246 42.4759 82.5013C38.8413 83.699 35.2836 83.3636 31.774 81.8977C26.2884 79.6077 21.3365 76.429 16.5384 72.9821C15.774 72.4312 15.6466 71.6191 16.125 70.9436C16.637 70.225 17.4447 70.1628 18.3437 70.7376C21.6706 72.8671 24.9567 75.0613 28.3533 77.0734C30.8485 78.5537 33.4952 79.8137 36.411 80.264C38.411 80.5764 40.459 80.2991 42.3028 79.4664C43.911 78.7478 44.7596 77.507 44.6418 75.7033C44.3213 70.7848 43.9968 65.8663 43.6682 60.9478C43.5144 58.5524 43.2572 56.1762 43.262 53.7928C43.2523 52.2153 43.4742 50.6449 43.9206 49.1314C44.8365 46.1947 44.6658 43.2292 44.5552 40.247C44.5233 39.5611 44.4429 38.8784 44.3149 38.2037C44.1346 37.2264 43.3533 36.9701 42.6466 37.6767C42.1441 38.1486 41.722 38.6987 41.3966 39.3056C40.1538 41.8183 38.9639 44.355 37.7908 46.9013C37.5717 47.3621 37.4623 47.867 37.4711 48.3769C37.6442 52.0681 36.8677 55.5917 35.8846 59.1249C34.9014 62.6581 34.5528 66.3421 34.5336 70.0334C34.5251 70.5553 34.312 71.0531 33.9399 71.4203C33.6322 71.6766 32.8966 71.7629 32.5649 71.5664C32.3402 71.4185 32.1493 71.2253 32.0043 70.9991C31.8594 70.773 31.7637 70.5191 31.7235 70.2538C31.6562 68.9483 31.8173 67.6189 31.8125 66.3182C31.8174 65.8865 31.6788 65.4654 31.4182 65.1205C29.5601 62.9647 27.6394 60.8711 25.7836 58.7177C25.2379 58.0829 24.6346 57.9344 23.9591 58.2793C23.1129 58.7105 22.2139 59.1369 21.5312 59.7716C17.7476 63.2856 15.0408 67.4608 14.3485 72.6539C14.1316 74.4284 14.2317 76.2272 14.6442 77.9669C15.2788 80.6808 17.7692 81.1647 19.661 79.0999C19.9639 78.7717 20.1971 78.3813 20.4879 78.0387C21.012 77.4279 21.8052 77.3081 22.411 77.7705C23.0168 78.2328 23.2548 78.8987 22.8461 79.5885C20.6827 83.2511 16.3389 84.8296 12.923 81.112C10.5192 78.5082 8.94948 75.3631 7.34852 72.2491C6.45429 70.5101 5.63698 68.7327 4.78361 66.9793L4.66342 67.0128Z" fill="white"/>
<path d="M48.161 19.6037C46.8389 19.7738 45.6033 19.9893 44.3581 20.0828C40.3197 20.3726 36.8629 18.8252 33.6586 16.5735C33.0721 16.1591 32.6226 16.0609 32.0769 16.5113C30.9327 17.4694 29.7259 18.3413 28.6682 19.3857C27.7476 20.2888 26.9303 20.375 26.1178 19.3857C25.3509 18.4539 24.3822 18.4443 23.5168 19.3618C22.6144 20.3013 22.0975 21.5433 22.0677 22.8434C22.0379 24.1436 22.4974 25.4078 23.3557 26.3874C24.2379 27.4389 24.5096 28.4857 24.5192 29.7984C24.5192 31.674 24.7163 33.5519 25.661 35.2622C26.0529 35.9808 25.7932 36.6995 25.1202 37.1162C24.4471 37.533 23.5288 37.4348 23.1971 36.6372C22.6225 35.1762 22.1596 33.674 21.8125 32.1435C21.6009 31.2548 21.6803 30.3014 21.5865 29.3816C21.5599 29.0659 21.4505 28.7627 21.2692 28.5025C19.6129 26.3706 18.7764 24.0543 19.375 21.3164C19.5 20.7439 19.2379 20.0876 19.1706 19.4672C18.8966 16.9472 18.3894 14.4201 18.9735 11.893C20.1081 6.98009 23.5264 3.07563 29.7908 2.93431C30.5562 2.94114 31.2999 2.68195 31.8942 2.20132C35.7115 -0.773726 41.7139 -0.718633 45.4831 2.4744C47.1346 3.87329 48.4759 5.63629 49.9254 7.26514C50.8004 8.24724 51.5841 9.30839 52.4639 10.2857C53.0682 11.0065 53.9304 11.4644 54.8678 11.5624C55.9928 11.6798 56.4855 12.741 55.9279 13.7829C54.9527 15.5833 53.4748 17.0634 51.673 18.0443C51.1057 18.3605 51.0216 18.7102 51.0288 19.3162C51.0553 21.7116 51.0168 24.0902 50.9375 26.4736C50.9062 27.4318 50.1899 28.0402 49.3798 27.9683C48.5697 27.8965 48.0456 27.2234 48.0769 26.2437C48.1394 24.3657 48.1939 22.4869 48.2404 20.6074C48.2355 20.2624 48.1875 19.9414 48.161 19.6037ZM52.1899 13.9961C50.9423 12.6811 49.7355 11.4546 48.5841 10.1755C47.9254 9.44253 47.4158 8.57301 46.7428 7.85679C45.5577 6.60162 44.423 5.23865 43.0408 4.23499C40.286 2.23965 35.7548 2.46002 33.411 4.65897C32.5168 5.49975 31.6514 5.90696 30.4687 5.75845C30.1689 5.74258 29.8682 5.75059 29.5697 5.7824C22.7331 6.01715 20.7115 12.7984 21.9351 16.9017C23.6178 15.4956 25.4303 15.5292 27.0961 16.4059L31.423 13.5937C32.6105 12.82 33.7355 12.6859 34.7884 13.8452C35.0559 14.0856 35.3484 14.2968 35.661 14.4752C39.6586 17.2946 43.9615 18.0419 48.6057 16.3292C50.0432 15.7998 51.3293 15.0118 52.1899 13.9961Z" fill="white"/>
<path d="M66.4496 66.0953C62.4399 67.8416 58.3149 68.6033 53.9496 68.8213C53.7837 71.7676 53.5722 74.654 53.4688 77.5452C53.3534 80.7694 53.3366 83.9983 53.2765 87.2249C53.2549 88.3316 52.6875 88.9975 51.7909 88.9687C50.8943 88.94 50.3943 88.298 50.3991 87.2273C50.4351 79.0375 50.6178 70.8502 51.8414 62.7346C52.1899 60.4375 52.7452 58.1691 53.2549 55.9006C53.4952 54.8658 54.2356 54.3772 55.0457 54.5856C55.9231 54.8251 56.2284 55.5797 56.0073 56.6624C55.4375 59.5009 54.9159 62.3466 54.3823 65.1899C54.3623 65.4842 54.3623 65.7795 54.3823 66.0738C56.5866 65.6953 58.7404 65.4079 60.8534 64.9432C63.5618 64.3779 66.1209 63.2526 68.3654 61.64C68.6467 61.434 68.9568 60.974 68.9183 60.6818C68.2909 55.5246 67.6275 50.3817 66.1395 45.3682C64.75 40.6948 61.7669 37.5737 57.1875 35.9304C55.8077 35.4346 54.4207 34.9579 53.0385 34.4693C52.0265 34.11 51.6226 33.4153 51.9279 32.5721C52.2332 31.729 52.9496 31.3936 53.976 31.7745C56.0241 32.5314 58.0914 33.2548 60.0818 34.1435C64.7837 36.2394 67.5 40.0074 68.9472 44.8268C70.3198 49.3948 70.9616 54.0969 71.6202 58.7966C71.7188 59.5153 71.75 60.2339 71.9039 60.9285C72.1202 61.8867 71.9039 62.7251 71.0553 63.185C69.4063 64.0737 69.2428 65.3576 69.3726 67.099C69.8534 73.6551 70.1539 80.2232 70.5169 86.789C70.5289 86.9974 70.5433 87.2057 70.5385 87.4141C70.5217 88.3268 69.964 88.952 69.1515 88.9807C68.339 89.0095 67.7284 88.4154 67.6683 87.5076C67.5481 85.6871 67.4399 83.8674 67.3438 82.0485C67.0794 77.1827 66.8165 72.3185 66.5553 67.4559C66.5505 67.0367 66.4976 66.6295 66.4496 66.0953Z" fill="white"/>
<path d="M30.7596 49.5889C31.351 49.7494 31.8149 49.862 32.2669 50.0057C33.125 50.2764 33.5241 50.9112 33.3534 51.6825C33.1827 52.4538 32.5553 52.8945 31.6539 52.7556C29.6587 52.4466 27.8726 51.5723 26.2572 50.4249C24.8149 49.4045 23.5145 48.2068 22.1707 47.0714C21.9009 46.8736 21.7113 46.5859 21.6363 46.2607C21.5614 45.9354 21.606 45.5941 21.762 45.2988C24.4856 39.3368 27.9327 33.8873 33.0385 29.6331C35.1515 27.8749 37.4784 26.4976 40.25 25.9873C43.1346 25.4556 45.4351 26.4664 47.2645 28.6486C49.3486 31.1326 50.3895 34.1172 51.3149 37.1618C52.2404 40.2063 53.1635 43.2652 54.1996 46.2809C54.5505 47.3085 55.2044 48.2427 55.7693 49.1913C56.4159 50.2764 56.2741 51.0262 55.1683 51.649C53.2452 52.7365 51.1274 53.1221 48.9375 53.0862C48.5711 53.0875 48.2188 52.945 47.957 52.6894C47.6951 52.4339 47.5448 52.086 47.5385 51.7208C47.5048 50.9423 48.0697 50.3339 48.9135 50.2381L52.5457 49.8189C51.7284 47.8116 50.863 46.0079 50.2572 44.1251C49.375 41.4016 48.7813 38.5846 47.8534 35.8802C47.2717 34.1884 46.4829 32.5746 45.5048 31.0751C43.9351 28.6797 42.0457 28.1743 39.3462 29.2043C35.9952 30.4859 33.476 32.8692 31.1851 35.5089C28.6995 38.3834 26.7428 41.5836 25.0697 44.9778C24.851 45.421 24.8294 45.6965 25.2645 46.0342C26.226 46.7528 27.125 47.5265 28.1491 48.3481L31.4111 41.8567C31.5433 41.5908 31.6707 41.3177 31.8197 41.059C32.2837 40.2494 33.0457 39.9811 33.7789 40.3572C34.512 40.7333 34.7837 41.5094 34.3774 42.3453C33.4159 44.3311 32.3991 46.3001 31.4087 48.2763C31.1947 48.6811 31.0072 49.0811 30.7596 49.5889Z" fill="white"/>
<path d="M54.5793 72.2732C54.7717 71.763 54.839 71.121 55.1947 70.7881C55.5505 70.4551 56.2476 70.309 56.637 70.4838C56.8732 70.6101 57.0784 70.7867 57.238 71.0013C57.3976 71.2158 57.5076 71.4628 57.5601 71.7246C57.9303 75.1668 58.1923 78.6209 58.5048 82.0679C58.6539 83.7039 58.8967 85.3327 58.9736 86.9688C59 87.5269 58.8077 88.2647 58.4351 88.6455C57.6154 89.4576 56.2981 88.8108 56.1683 87.5844C55.8478 84.6477 55.5505 81.7077 55.2765 78.7646C55.0721 76.6256 54.9015 74.4817 54.714 72.3426L54.5793 72.2732Z" fill="white"/>
<path d="M2.95432 24.4111C4.58413 24.7273 6.2548 25.0507 7.92548 25.3693C8.71634 25.525 9.51201 25.6687 10.2957 25.8484C11.1731 26.0615 11.6611 26.7921 11.4976 27.5634C11.3341 28.3348 10.5769 28.8474 9.69951 28.6749C7.35336 28.223 5.00961 27.7535 2.66826 27.2664C1.82451 27.0892 1.32211 26.3897 1.46634 25.6424C1.61057 24.895 2.12259 24.471 2.95432 24.4111Z" fill="white"/>
<path d="M59.1466 30.1577C58.3269 30.1217 57.7836 29.7433 57.6418 28.972C57.5 28.2006 57.8533 27.5491 58.6154 27.379C61.0937 26.8305 63.5865 26.3394 66.0841 25.8771C66.4459 25.8229 66.8145 25.914 67.1089 26.1305C67.4032 26.3471 67.5993 26.6712 67.6538 27.0317C67.8029 27.8054 67.3101 28.5192 66.411 28.7085C64.3053 29.1516 62.1923 29.5564 60.0817 29.9756C59.762 30.0451 59.4375 30.1026 59.1466 30.1577Z" fill="white"/>
<path d="M12.9087 23.0242C12.6322 22.9188 12.3438 22.8374 12.0817 22.708C10.3125 21.8385 8.54569 20.9666 6.79328 20.0731C5.84857 19.5941 5.53607 18.8108 5.93751 18.0371C6.33896 17.2634 7.13944 17.043 8.10098 17.5149C9.91348 18.4107 11.7284 19.3178 13.5457 20.236C14.2284 20.5881 14.625 21.2061 14.3053 21.9248C14.0841 22.4158 13.5241 22.7559 13.1178 23.1656L12.9087 23.0242Z" fill="white"/>
<path d="M63.3509 20.502C63.1874 20.684 62.935 21.1631 62.5408 21.3739C60.661 22.38 58.762 23.3046 56.8533 24.2268C56.0216 24.6268 55.2403 24.3418 54.8773 23.592C54.5144 22.8423 54.786 22.0877 55.6129 21.6613C57.4759 20.7032 59.3437 19.769 61.2307 18.8683C62.31 18.3557 63.3918 19.0648 63.3509 20.502Z" fill="white"/>
</g>
<defs>
<clipPath id="clip0_80_896">
<rect width="72" height="89" fill="white"/>
</clipPath>
</defs>
</svg>
